<?xml version="1.0" encoding="utf-8"?>
<!-- Generator: Adobe Illustrator 17.0.1, SVG Export Plug-In . SVG Version: 6.00 Build 0)  -->
<!DOCTYPE svg PUBLIC "-//W3C//DTD SVG 1.1//EN" "http://www.w3.org/Graphics/SVG/1.1/DTD/svg11.dtd">
<svg version="1.1" xmlns="http://www.w3.org/2000/svg" xmlns:xlink="http://www.w3.org/1999/xlink" x="0px" y="0px" width="475px"
	 height="475px" viewBox="0 0 475 475" enable-background="new 0 0 475 475" xml:space="preserve">
<g id="Layer_1">
	<path d="M237.5,0C106.332,0,0,106.332,0,237.5S106.332,475,237.5,475S475,368.668,475,237.5S368.668,0,237.5,0z"/>
	<g id="XMLID_1_">
		<g>
			<circle fill="#850A0D" cx="237.5" cy="235" r="210"/>
		</g>
		<g>
		</g>
	</g>
	<path fill="#86372D" d="M427.836,146.192C394.377,74.606,321.737,25,237.5,25c-115.98,0-210,94.02-210,210
		c0,17.578,2.172,34.646,6.241,50.964c21.969,3.284,44.511,4.997,67.488,4.997C233.457,290.96,351.325,234.42,427.836,146.192z"/>
	<polygon points="464.362,243.023 266.479,214.251 295.981,11.348 245.523,9.138 216.751,207.021 13.848,177.519 11.638,227.977 
		209.521,256.749 180.019,459.652 230.477,461.862 259.249,263.979 462.152,293.481 	"/>
</g>
<g id="Layer_2">
	<path d="M370.014,339.229L334.946,138.87l-0.891-0.933l-54.5-20.625l-50.104,18.803l-1.349,0.074l-51.174-18.141l-54.622,18.89
		l-1.25,1.375l7.375,212.5l2.125,2.875l4.5-0.75l53.08-57.166l2.045-0.834l2.016,0.612l60.484,56.013l2.75,1.25l2.917-1.25
		l35.083-52.75l1.386-0.855l65.03,44.772l3.722,1.087l4.362-1.128L370.014,339.229L370.014,339.229z"/>
	<g id="XMLID_2_">
		<g>
			<polygon fill="#FFFFFF" points="328.511,145.523 361.501,331.283 361.201,332.092 297.511,289.392 293.851,288.233 
				290.621,289.802 254.341,342.753 193.561,287.063 190.561,285.813 187.931,286.813 136.321,341.842 135.061,342.313 
				134.661,341.563 128.591,145.932 129.181,144.313 130.571,143.133 177.561,126.183 228.431,143.943 279.561,126.313 
				326.711,143.342 			"/>
		</g>
		<g>
		</g>
	</g>
</g>
<g id="Layer_3">
	<g>
		<g>
			<path d="M283.181,230.028c3.493-6.169,4.739-13,4.819-20.028c0.088-7.742-11.912-7.733-12,0
				c-0.056,4.917-0.727,9.639-3.181,13.972C269.001,230.715,279.369,236.76,283.181,230.028L283.181,230.028z"/>
		</g>
	</g>
	<g>
		<g>
			<path d="M271.595,257.786c5.233-1.922,8.397-6.037,10.191-11.191c1.075-3.091-1.196-6.557-4.191-7.381
				c-3.311-0.911-6.307,1.105-7.381,4.191c-0.088,0.263-0.182,0.523-0.284,0.781c0.341-0.785,0.372-0.878,0.094-0.279
				c-0.303,0.636-0.679,1.233-1.078,1.813c0.522-0.653,0.574-0.732,0.156-0.237c-0.27,0.312-0.577,0.588-0.885,0.862
				c0.686-0.508,0.762-0.581,0.228-0.218c-0.339,0.222-1.522,0.632-0.041,0.088c-3.067,1.126-5.113,4.028-4.191,7.381
				C265.027,256.55,268.522,258.914,271.595,257.786L271.595,257.786z"/>
		</g>
	</g>
	<g>
		<g>
			<path d="M230.757,262.243c6.247,5.973,14.301,9.074,22.838,6.543c7.401-2.195,4.247-13.777-3.19-11.571
				c-4.419,1.31-7.941-0.378-11.162-3.457C233.652,248.413,225.155,256.886,230.757,262.243L230.757,262.243z"/>
		</g>
	</g>
	<g>
		<g>
			<path d="M208.819,227.028c2.483,5.207,3.451,10.921,4.395,16.567c0.54,3.23,4.476,4.99,7.381,4.191
				c3.393-0.933,4.73-4.158,4.191-7.381c-1.134-6.783-2.629-13.192-5.605-19.433C215.852,213.989,205.507,220.081,208.819,227.028
				L208.819,227.028z"/>
		</g>
	</g>
	<g>
		<g>
			<path d="M200,201c3.064,0.082,5.958,2.085,7.214,5.595c1.101,3.076,4.048,5.107,7.381,4.191c2.974-0.818,5.294-4.299,4.191-7.381
				c-2.979-8.321-9.733-14.164-18.786-14.405C192.257,188.793,192.277,200.794,200,201L200,201z"/>
		</g>
	</g>
	<g>
		<g>
			<path d="M175.181,205.028c-0.257,0.319-0.16,0.196,0.292-0.369c0.403-0.506,0.824-0.997,1.245-1.487
				c0.685-0.797,1.412-1.557,2.15-2.305c0.738-0.748,1.518-1.455,2.305-2.15c0.323-0.282,0.651-0.559,0.981-0.832
				c-0.128,0.107,1.549-1.216,0.874-0.704c2.6-1.973,3.955-5.131,2.152-8.209c-1.504-2.568-5.597-4.134-8.209-2.152
				c-4.694,3.561-8.591,7.458-12.152,12.152c-1.982,2.612-0.415,6.705,2.152,8.209C170.049,208.984,173.208,207.628,175.181,205.028
				L175.181,205.028z"/>
		</g>
	</g>
	<g>
		<g>
			<path d="M157.786,250.405c-1.471-8.901,2.557-17.6,6.395-25.377c3.412-6.913-6.937-12.996-10.362-6.057
				c-5.458,11.059-9.668,22.139-7.605,34.623C147.474,261.216,159.036,257.972,157.786,250.405L157.786,250.405z"/>
		</g>
	</g>
	<g>
		<g>
			<path d="M293.972,149.819c-17.199,12.169-27.103,30.665-32.757,50.586c-2.117,7.46,9.462,10.622,11.571,3.19
				c4.736-16.685,12.728-33.144,27.243-43.414C306.29,155.75,300.305,145.338,293.972,149.819L293.972,149.819z"/>
		</g>
	</g>
	<g>
		<g>
			<path d="M257.972,167.181c15.267,9.262,29.121,20.494,41.786,33.062c5.496,5.454,13.984-3.029,8.485-8.485
				c-13.358-13.255-28.112-25.17-44.214-34.938C257.394,152.794,251.367,163.174,257.972,167.181L257.972,167.181z"/>
		</g>
	</g>
</g>
</svg>
