<?xml version="1.0" standalone="no"?>
<!DOCTYPE svg PUBLIC "-//W3C//DTD SVG 1.1//EN" "http://www.w3.org/Graphics/SVG/1.1/DTD/svg11.dtd" >
<svg xmlns="http://www.w3.org/2000/svg">
<metadata></metadata>
<defs>
<font id="tf2_professorregular" horiz-adv-x="544" >
<font-face units-per-em="2048" ascent="1638" descent="-410" />
<missing-glyph horiz-adv-x="442" />
<glyph horiz-adv-x="0" />
<glyph unicode="&#xd;" horiz-adv-x="442" />
<glyph unicode=" "  horiz-adv-x="442" />
<glyph unicode="&#x09;" horiz-adv-x="442" />
<glyph unicode="&#xa0;" horiz-adv-x="442" />
<glyph unicode="!" horiz-adv-x="224" d="M64 160l8 24l24 8h32l24 -8l8 -24v-32l-8 -24l-24 -8l-24 8l-32 32zM64 1016l8 24l24 8l24 -8l8 -24l6 -52l4 -44l6 -48l6 -38l10 -450l-8 -24l-24 -8l-24 8l-8 24l-4 234l-8 96l-4 50l-4 48l-6 50l-2 42z" />
<glyph unicode="&#x22;" horiz-adv-x="384" d="M64 1088v224l8 24l24 8l24 -8l8 -24v-32l8 -24l16 -16l8 -24v-128l-8 -24l-16 -16l-16 -16h-16l-32 32zM224 1088v192l8 24l24 8l24 -8l8 -24v-32v-96v-32l-8 -24l-32 -32h-16z" />
<glyph unicode="#" horiz-adv-x="928" d="M62 734l34 12l48 -2l16 16l24 8h32l24 8l8 120v32l8 24l32 32h16l8 -24v-32l8 -128l8 -24l24 -8h184l24 8l8 24v32l-8 24l-16 16l-8 24v32l8 24l24 8l24 -8l32 -32l8 -24v-64l12 -58l108 -14l8 -24l-8 -24l-30 -22h-50l-8 -50l8 -24l32 -32h16l96 16l32 -32v-16l-24 -8 h-32l-88 -16l-8 -48l8 -24l16 -16v-16l-24 -8h-32l-24 8l-16 48l-32 32l-24 8h-160l-24 -8l-8 -24l32 -96v-32l-8 -24l-24 -8l-44 2l-12 38l-8 24v64l-8 24l-24 8h-160l-24 8l-8 24l8 24l24 8h64l24 8l16 16l48 16l8 24v64l-8 24l-24 8l-24 -8l-136 -24l-24 8zM344 608 l8 -24l24 -8h160l62 8l-16 108l-46 12l-184 -12l-8 -52v-32z" />
<glyph unicode="$" horiz-adv-x="640" d="M64 928v64l8 24l8 28l24 36l64 64l48 16l32 32l8 24v64l8 24l24 8l24 -8l8 -24v-64l8 -24l24 -8h64l24 -8l16 -16l48 -16l32 -32l8 -24l-56 -24l-48 48l-24 8h-64l-24 -8v-16l-4 -10l8 -24l20 -262l8 -24l144 -144l16 -48l16 -16l16 -48v-48l-16 -48l-32 -32l-24 -8h-32 l-24 -8l-8 -24v-224l8 -24l16 -16l8 -24v-32l-8 -24l-24 -8h-32l-24 8l-24 286l-16 26l-4 48l-36 8l-48 16l-96 96l-8 24l8 24l24 8h32l24 -8l16 -48l64 -64h16l8 24v192l-18 88l-86 64l-48 16l-96 96zM128 960l8 -24l32 -64l64 -32l24 -8l24 8l8 24l-20 198l-8 24l-12 26 h-16l-96 -96l-8 -24v-32zM384 448l8 -24l24 -8h32l24 8l8 24l18 62l-8 24l-16 34l-34 32l-52 34l-4 -58v-128z" />
<glyph unicode="%" horiz-adv-x="1056" d="M64 352v32l8 24l560 560l144 144l24 8l24 -8v-16l-16 -16l-288 -288l-16 -48l-304 -304l-16 -48l-64 -64l-24 -8l-24 8zM96 864v96l8 24l12 26l20 38l48 48l28 36l36 28l16 16l24 8h64l24 -8l64 -64l8 -24l-8 -24l-16 -16l-16 -48l-16 -16l-16 -48l-64 -64l-48 -48 l-48 -16l-24 -8l-24 8l-16 16l-48 16zM160 896l8 -24l40 -4l62 16l42 52l64 94l-10 50l-54 32l-24 8l-24 -8l-64 -64l-16 -48l-16 -16l-8 -24v-64zM480 448l8 24l16 16l16 48l64 96l32 32l64 32l24 8l70 -2l56 22l48 2l24 -8l82 -54l8 -24v-64l-8 -24l-16 -16l-16 -48 l-16 -16l-16 -48l-64 -64l-48 -16l-16 -16l-24 -8h-32h-96h-64l-24 8l-32 32l-16 48l-16 16zM576 448l8 -24l32 -32l24 -8h160l24 8l64 64l32 64l8 24l18 52l-20 44l-70 24l-24 8l-46 -8l22 -16l16 -16l8 -24l-8 -24l-24 -8l-24 8l-16 16l-24 8h-64l-24 -8l-32 -32l-16 -48 l-16 -16l-8 -24v-32z" />
<glyph unicode="&#x26;" horiz-adv-x="734" d="M54 562l8 24l4 56l8 24l22 70l8 24l32 64l48 48l34 30l-26 58l-8 24l-16 16l-16 48l-16 16l-8 24v32l8 24l64 64l24 8l24 -8l16 -16l48 -16l32 -32l8 -24v-64l-6 -48l-8 -24l-18 -24l-8 -24l-16 -16l-8 -24v-64l8 -24l32 -32h16l70 46l24 8l42 2l24 -8l16 -48l16 -16 l8 -24v-96l-8 -24l-16 -16l-16 -48l-16 -16l-8 -24l8 -24l16 -16l8 -24l-8 -24h-16l-16 16h-16l-112 -112l-24 -8h-128l-24 8l-64 64l-20 42l-12 22l-8 24zM128 512l8 -24l2 -28l22 -44l8 -24l48 -16l16 -16l24 -8h32l24 8l96 96l8 24v32l-8 24l-48 48l-16 48h-16l-32 -32 l-8 -24v-96l-8 -24h-16l-32 32l-8 24v64l8 24l16 16l16 48l16 16l8 24v32l-24 40l-16 48h-16l-32 -32l-16 -48l-34 -86l-8 -24l-6 -34l-8 -24v-64zM192 1088l8 -24l16 -16l16 -48l28 -40l20 40l8 24v96l-8 24l-24 8h-32l-24 -8l-8 -24v-32zM360 680l32 -64l32 -32l24 -8 l24 8l8 24v128l-8 24l-24 8l-24 -8l-64 -64v-16zM512 384l8 24h16l8 -24l-8 -24h-16zM544 320l8 24h16l32 -32l8 -24l-8 -24h-16l-32 32zM608 224l8 24h16l8 -24l-8 -24h-16zM648 168v16h16v-16h-16z" />
<glyph unicode="'" horiz-adv-x="320" d="M64 992v32l8 24l16 16l36 46l28 50l16 48l32 32l24 8l24 -8v-16l-16 -16l-8 -24v-32l-8 -24l-64 -128l-32 -32l-24 -8l-24 8z" />
<glyph unicode="(" horiz-adv-x="512" d="M64 512l32 160v160l8 24l16 16l8 24v128l8 24l32 64l16 16l16 48l80 80l16 48l24 8l24 -8l8 -24l-8 -24l-16 -16l-16 -48l-80 -80l-8 -24l-24 -72l-8 -24l-14 -190l-8 -24l-2 -50l-8 -24v-192v-26l4 -22l6 -26l22 -86l8 -24l16 -16l16 -48l48 -48l16 -48l16 -16l16 -48 l16 -16v-16l-16 -16l-16 -16l-24 -8l-24 8l-64 64l-16 48l-16 16l-16 48l-16 16l-8 24v32l-8 24l-16 16l-8 24l-24 136zM352 0v32l8 24l24 8l24 -8l32 -32v-16l-16 -16l-16 -16l-24 -8l-24 8z" />
<glyph unicode=")" d="M64 32v32l38 28l44 26l106 84l104 170l28 108l8 24l16 16l8 24v224l-8 24l-16 16l-8 24v32l-8 24l-16 16l-16 48l-160 160l-48 16l-64 64l-8 24l8 24l24 8l24 -8l16 -16l48 -16l16 -16l48 -16l64 -64l16 -48l48 -48l16 -48l16 -16l8 -24l14 -38l8 -24l2 -10l8 -24l32 -96 v-224l-8 -24l-16 -16l-8 -24v-64l-8 -24l-24 -72l-68 -98l-196 -182l-24 -8h-32l-24 8z" />
<glyph unicode="*" horiz-adv-x="512" d="M64 1192v16l24 8h96l24 8v16l-48 48l-8 24l8 24h16l48 -48l32 -28l20 22l28 38l16 48h16l8 -24v-32l-8 -24l-16 -16l-8 -24l8 -24l24 -8h64l24 -8l8 -24l-8 -24l-24 -8h-64l-24 -8v-16l16 -16l16 -48l16 -16l8 -24l-8 -24h-16l-48 112l-32 32h-16l-32 -32l-16 -48 l-64 -96l-24 -8l-24 8v16l16 16l16 48l16 16l16 48l16 16l8 24l-8 24l-24 8h-64z" />
<glyph unicode="+" horiz-adv-x="896" d="M64 680v16l32 32l48 16l16 16l24 8h160l24 8l8 24v128l8 24l16 16l8 24v32l8 24h16l32 -32l8 -24v-160l8 -24l32 -32l24 -8h32h128h32l24 8l16 16h16l32 -32l8 -24l-8 -24l-16 -16l-16 -16l-24 -8h-224l-24 -8l-8 -24v-160l8 -24l16 -16l8 -24l-8 -24l-32 -32h-16l-8 24 v32l-8 24l-16 16l-16 48l-32 160l-24 8h-288z" />
<glyph unicode="," horiz-adv-x="352" d="M64 -128l8 24l48 16l86 58l8 44l16 16l-6 34l-8 24h-16l-16 -16h-16l-64 64l-8 24l8 24l32 32l24 8h96l24 -8l8 -24v-224l-8 -24l-16 -16l-16 -16l-48 -16l-64 -48h-64z" />
<glyph unicode="-" d="M64 512l8 24l24 8h32l24 8l16 16l24 8h64l24 8l16 16l24 8h128l24 -8v-16l-16 -16l-16 -16l-24 -8h-96l-24 -8l-16 -16l-24 -8h-64l-24 -8l-16 -16l-24 -8h-32l-24 8z" />
<glyph unicode="." horiz-adv-x="256" d="M64 128l8 24l46 18l18 46l24 8l24 -8l8 -24l18 -56l-10 -42l-16 -16l-32 -38h-16l-56 30z" />
<glyph unicode="/" horiz-adv-x="484" d="M86 136v20l4 14l8 10l8 28l10 10l78 198l62 140l70 170l8 28l10 10l8 28l36 38l12 6l14 -6l4 -14v-38l-4 -14l-36 -94l-16 -38l-54 -112l-60 -142l-10 -28l-8 -10l-10 -28l-8 -10l-34 -76l-10 -28l-18 -38l-34 -38l-14 -4l-12 4z" />
<glyph unicode="0" horiz-adv-x="800" d="M64 128v32l8 24l80 80l-6 26l-6 114l4 40l2 44l10 58l16 46l30 84l28 54l26 46l40 48l46 16h36l126 -16l52 -24l30 -18l22 -14l24 8l38 42l26 22l16 16h16l8 -24v-32l-8 -24l-16 -16l-32 -32l-8 -24l24 -78l6 -38l6 -42l4 -48l-8 -146l-14 -56l-8 -24l-18 -40l-14 -34 l-18 -30l-72 -94l-32 -22l-92 -26l-40 4l-24 8l-26 8l-38 24l-88 86l-28 36l-20 -20l-84 -68h-16zM230 412l6 -64l24 28l18 22l36 30l222 252l8 24l-8 24l-32 26l-28 14l-24 8h-60l-32 -16l-30 -36l-24 -44l-10 -20l-16 -44l-14 -44l-8 -24l-14 -50l-6 -24l-6 -34zM264 264 l10 -26l22 -38l64 -64l38 -22l26 -10l44 -4l34 14l34 22l26 36l8 24l14 20l8 24l8 24l12 44l8 102l-12 166l-8 24l-14 14l-30 -28l-32 -32l-116 -130l-64 -64l-80 -80v-16z" />
<glyph unicode="1" horiz-adv-x="608" d="M64 0v32l12 14l154 38l48 16l-8 120l-6 108l-4 66l-4 374l-8 24h-16l-16 -48l-32 -64l-32 -64l-24 -8l-24 8v16l32 64l80 144l16 48l32 32l24 8l24 -8v-16l8 -76l28 -586v-46l4 -36l8 -24l24 -8h32l82 12l20 -6l18 -62l-16 -16l-16 -16l-24 -8l-256 -32l-24 -8l-104 -24 l-24 8z" />
<glyph unicode="2" horiz-adv-x="736" d="M64 40v16l32 32l48 16l128 128l42 50l54 78l32 64l16 48l12 36l8 24l4 44v192l-8 24l-22 24l-34 16h-64l-38 -22l-26 -36l-24 -56l-16 -48l-8 -24l-50 -2l-8 24l10 68l30 74l32 42l70 52l22 6l72 4l38 -18l64 -58l24 -38l12 -40l-12 -262l-8 -42l-14 -50l-26 -52l-56 -90 l-64 -80l-32 -48l-16 -16v-16l24 -8l288 32l24 -8l32 -32v-16l-28 -50l-36 -14l-60 14l-380 -22l-48 6l-24 18z" />
<glyph unicode="3" horiz-adv-x="512" d="M64 0v32l8 24l24 8h64l24 8l64 32l32 32l64 96l32 64l2 30v44l-8 36l-16 24l-20 18h-206l-24 8l-8 24l8 24l80 54l40 62l16 48l16 70v30l-2 20l-24 8l-24 -8l-22 -12l-64 -32l-24 -8l-24 8l-8 24v32l8 24l24 8l72 24l24 8h32l24 -8l64 -64l8 -24v-32l-2 -42l-16 -52 l-10 -34l-28 -56l48 -16l64 -32l32 -32l32 -64l8 -24v-96l-8 -24l-32 -64l-30 -60l-26 -44l-72 -90l-56 -30l-128 -8l-24 8z" />
<glyph unicode="4" horiz-adv-x="640" d="M64 384l8 24l40 52l24 44l64 96l86 196l16 16l8 24l4 26l-2 26l2 20v16l14 28h16l32 -32l8 -24l16 -110l16 -114l12 -192l8 -24l24 -8h84l24 -8l8 -24l-8 -24l-24 -8h-64l-24 -8l-8 -24v-320l-8 -24l-24 -8l-24 8l-32 32l-8 24v256l-8 24l-24 8h-224l-24 8zM178 422 l46 -6h32l60 4l26 10l-4 116l-2 114l-8 20l-16 4l-44 -88l-20 -44l-32 -64l-24 -40z" />
<glyph unicode="5" horiz-adv-x="672" d="M64 904v34h70l16 16l48 -8l16 -16l24 -8l330 6l24 -8v-16l-16 -16l-16 -16h-16l-40 -8h-32h-96l-84 4h-32l-24 -8l-8 -24l4 -164l6 -60l18 -142h16h22h24h40l48 -12l30 -14l56 -72l28 -46l16 -70v-160l-8 -24l-64 -64l-24 -8h-32l-24 8l-64 64l-8 24v32l8 24h16l48 -48 l24 -8h32l24 8l12 46l-8 60l-36 102l-16 22l-44 38l-60 18l-94 -2h-32l-24 8l-8 24l-26 228l-8 216l-8 24z" />
<glyph unicode="6" d="M64 200v16l52 18l12 74l12 92l12 80l32 96l8 24l32 96l32 64l38 58l90 102l24 8h32l24 -8v-16l-40 -34l-58 -72l-52 -96l-18 -38l-16 -56l-24 -104l-12 -58l-20 -122l-8 -36v-32l22 -12l68 -12l48 -18l68 -42l42 -52l8 -24v-32l-8 -24l-16 -16l-16 -16l-38 -24l-26 -8 l-24 -8h-64l-24 8l-42 14l-40 40l-20 48l-16 48l-8 24l-34 18zM218 140l6 -34l26 -40l38 -26l36 -6l46 6l26 26l-4 32l-16 26l-40 28l-36 12l-50 8l-24 -8zM416 104h16v16h-16v-16z" />
<glyph unicode="7" horiz-adv-x="704" d="M64 800l8 24l24 8l168 24l24 8l200 24l24 8l108 14l24 -8l8 -24l-14 -98l-6 -36l-24 -72l-128 -448l-8 -24l-24 -104l-8 -24l-16 -16l-8 -24v-32l-8 -24l-30 -8h-16l-34 8l-8 24v64l8 24l24 72l8 24l64 224l56 200l32 96l8 24l16 16l8 24v32l-8 24l-128 -16l-24 -8 l-224 -32h-64l-24 8z" />
<glyph unicode="8" d="M54 220l4 164l10 46l14 56l12 24l34 52l24 34l20 12l-26 20l-20 38l-8 72l4 66l18 54l24 44l28 34l34 14l30 12h22h32l24 -8l32 -32l22 -36l10 -28l8 -24v-96l-6 -38l-4 -16l-18 -26l-20 -30l18 4l48 -28l32 -42l24 -50l14 -46l6 -52l-8 -106l-12 -68l-18 -58l-20 -48 l-32 -54l-36 -38l-32 -18l-32 -14l-32 -6l-82 6l-40 12l-46 32l-24 38zM130 308l4 -42l6 -36l6 -30l12 -34l36 -36l38 -14h60l58 40l28 40l28 58l6 36v86l-4 64l-8 36l-8 22l-16 28l-32 32l-24 8l-64 -6l-24 -8l-32 -26l-20 -28l-12 -26l-16 -48l-12 -48l-8 -40zM176 774 l6 -68l16 -34l24 -22l24 -8h32l24 8l24 20l16 36v96l-16 48l-24 30l-44 12l-38 -14l-28 -40z" />
<glyph unicode="9" horiz-adv-x="608" d="M74 612v32l12 42l28 42l52 48l8 6l54 28l90 12l20 -2l60 -14l54 -36l46 -58l18 -50l14 -76l6 -36l2 -38v-52l-6 -38l-8 -50l-8 -40l-8 -32l-8 -24l-12 -36l-8 -26l-16 -38l-18 -36l-20 -34l-26 -40l-48 -58l-70 -58l-52 -28l-68 -18h-66l-20 18v32l12 8l88 22l34 16 l70 56l60 80l32 62l18 40l18 58l12 74l10 136l-4 28l-26 -24l-40 -20l-30 -10l-88 -10l-42 4l-30 10l-34 22l-48 68zM154 648l14 -48l32 -38l26 -14l36 -4l34 2l26 10l18 12l22 26l14 20l6 18l6 34l-6 28l-12 24l-32 32l-24 8l-64 -4l-40 -20l-42 -40l-10 -16z" />
<glyph unicode=":" horiz-adv-x="288" d="M64 234l8 24l24 8h64l24 -8l32 -32l8 -24l-8 -24l-24 -8h-64l-24 8l-32 32zM64 650l8 24l16 16l16 48l32 32h16l32 -32l8 -24v-64l-8 -24l-16 -16l-16 -16l-24 -8l-24 8l-32 32z" />
<glyph unicode=";" horiz-adv-x="384" d="M64 208v16l24 8h64l24 8l32 32l20 36l12 28l8 24l-8 24l-48 2l-28 44v32l8 24l24 8l52 2l24 -16l26 -34l14 -32v-22v-32l-8 -24l-10 -34l-22 -30l-96 -96l-24 -8h-32l-24 8zM88 712v32l8 24l32 32l24 8h32l24 -8l32 -32l8 -24l-8 -24l-16 -16l-16 -16l-24 -8h-64l-24 8z " />
<glyph unicode="&#x3c;" d="M64 640l8 24l48 16l304 304l24 8l24 -8v-16l-16 -16l-16 -48l-96 -96l-144 -144v-16l32 -32l64 -32l64 -32l24 -8h32l24 -8l32 -32l8 -24l-8 -24l-24 -8l-24 8l-22 10l-42 22l-136 56l-26 22l-70 42h-32l-24 8z" />
<glyph unicode="=" horiz-adv-x="672" d="M64 520v16l32 32l24 8h256l24 8h48l24 -8h96l24 -8v-16l-16 -16l-16 -16l-24 -8h-448zM64 680v16l32 32l48 16l16 16l24 8h128l192 32h32l24 -8l8 -24l-8 -24l-24 -8l-124 -2l-24 -8l-52 -14l-32 -4l-152 -4l-24 -8l-16 -16l-24 -8z" />
<glyph unicode="&#x3e;" horiz-adv-x="608" d="M64 1000v16l24 8l24 -8l64 -32l132 -110l82 -54l58 -44l48 -16l32 -32l8 -24l-8 -24l-24 -8l-24 -8l-208 -208l-64 -64l-32 -32l-24 -8h-32l-24 8l-8 24l8 24l262 240l44 56l-6 28l-28 28l-176 112z" />
<glyph unicode="?" horiz-adv-x="640" d="M58 900l2 30l14 24l12 18l10 28l12 20l16 24l14 26l18 18l26 20l60 36l26 6h144l28 -10l26 -4l26 -10l28 -14l28 -14l72 -68l8 -28l-10 -26l-8 -24l-10 -22l-18 -24l-70 -64l-32 -18l-80 -24l-28 -10l-26 -8l-10 -28l10 -166l8 -36l8 -22l8 -28l4 -70l4 -28v-54l-10 -28 l-10 -26h-18l-34 36l-10 26l-30 210l-4 42l2 216l12 28l26 8h72l28 10l46 20l26 14l30 38l14 24l10 28l6 24v18l-14 20l-36 18l-62 12h-36h-54l-30 -2l-34 -8l-22 -8l-74 -72l-14 -26l-8 -26l-8 -22l-12 -26l-14 -22l-22 -14l-26 12zM338 44v18l12 26l8 26l16 20l26 8l36 -2 l28 -8l8 -28v-72l-8 -26l-28 -10l-36 2l-26 10z" />
<glyph unicode="@" horiz-adv-x="864" d="M64 416v224l8 24l4 20l8 24l12 28l8 24l128 128l64 32l88 40h160l24 -8l96 -96l8 -24v-256l-8 -24l-32 -64l-64 -64l-24 -8l-48 16l-56 72h-16l-16 -16l-40 -36l-16 -16l-46 -18l-26 -4l-24 -8l-32 10l-24 8l-14 60l12 64l10 30l22 34l90 78l48 16l72 6l8 24v32l22 12h16 l18 -20l8 -24v-192l8 -24l24 -8l24 8l32 64l8 24v192l-8 24l-64 64l-24 8h-96l-24 -8l-72 -24l-24 -8l-128 -128l-8 -24l-12 -28l-8 -24l-4 -20l-8 -24v-192l8 -24l10 -26l8 -20l6 -26l8 -24l16 -16l76 -114l38 -20l144 -2l102 34l24 8l56 38l110 142l42 42h16l8 -24v-32 l-8 -24l-16 -16l-16 -48l-96 -96l-24 -8l-104 -56l-24 -8l-104 -24l-24 -8h-64l-24 8l-64 32l-96 96l-32 64l-8 24zM270 514l12 -10l22 -6l114 70l14 62l-8 24l-40 6l-110 -94z" />
<glyph unicode="A" horiz-adv-x="686" d="M64 344l4 60l24 8h32l24 8l18 22l22 78l28 128l8 24l88 320l6 26l20 50l8 24l32 32h16l20 -22l12 -42l8 -24l30 -116l8 -24l64 -272l20 -88l26 -138l42 -18l8 -24l-8 -24l-26 -12v-16l24 -170v-32l2 -14l-16 -16l-16 -16h-16l-32 14l-8 42v32l-8 24l-32 148l-24 8h-160 l-80 6l-48 -218l-8 -24l-32 -32l-30 8l-8 24l36 218l-8 24zM244 420l4 -18l202 -20l24 8l8 24l-4 10l-10 50l-60 390l-8 24l-24 8l-24 -8l-8 -24l-68 -264l-26 -132z" />
<glyph unicode="B" horiz-adv-x="704" d="M64 768l8 24l24 8h32l12 8l8 24v192l-8 24l-20 32l-48 16l-8 24l8 24l24 8h192l24 -8l64 -32l32 -32l32 -64l8 -24l-10 -80l-30 -40l-26 -28l-54 -36l120 -40l24 -8l64 -32l24 -12l30 -26l26 -42l18 -30l8 -38l-2 -68l-8 -24l-32 -64l-32 -64l-76 -76l-116 -84l-64 -32 l-24 -8h-64l-24 8l-8 24l-32 384l-14 128l-8 24l-42 8l-24 8zM210 850l22 -10h16l46 10l40 24l42 62l8 24v32l-8 24l-16 16l-30 30l-26 8l-24 8h-32l-24 -8l-8 -24l-2 -138zM224 704l14 -198l2 -46l4 -38l6 -42l8 -86l8 -24h16l32 4l48 12l44 26l62 54l68 100l16 58v48 l-16 48l-32 32l-24 20l-24 8l-64 24l-24 8l-108 22l-28 -6z" />
<glyph unicode="C" horiz-adv-x="640" d="M52 526l8 116l2 32l18 76l26 72l34 58l90 102l58 46l38 18l50 12l32 2l40 -4l24 -8v-16l-32 -32l-24 -8l-24 -6l-24 -8l-24 -10l-88 -88l-42 -60l-28 -66l-8 -24l-20 -106l4 -40l26 -254l34 -74l22 -30l48 -32l52 -24l30 -8l56 -12l48 -6l34 -16l24 -8l32 -32v-16 l-16 -16l-16 -16l-24 -8l-94 2l-26 6l-40 12l-42 16l-52 18l-92 70l-54 70l-24 68l-12 52l-6 46l-4 30z" />
<glyph unicode="D" horiz-adv-x="704" d="M64 1064v16l16 20h16l32 -4l24 -8l170 12l26 -4l16 -4l38 -4l32 -12l24 -8l38 -14l38 -22l20 -10l44 -36l26 -34l16 -44l4 -98l-10 -78l-10 -84l-26 -104l-20 -58l-22 -60l-36 -80l-48 -80l-72 -70l-126 -84l-58 -16h-32l-50 4l-20 18l-18 110v384v96v256v36l-16 48z M168 964l12 -656l2 -34l2 -50l8 -24l42 -4l72 34l24 18l62 70l50 80l44 94l44 112l16 62l14 104l-6 122l-8 24l-32 36l-54 34l-62 16l-50 -2l-70 -4l-26 -2l-62 -12l-12 -8z" />
<glyph unicode="E" horiz-adv-x="674" d="M30 638l8 24l24 8l40 -2l24 8l8 24v300l-8 24l-16 16l-8 36l8 24l16 16l106 -8l64 16l24 8h128l24 -8l8 -24l-8 -24l-24 -8h-32l-24 -8l-84 -16l-46 -6l-24 -8l-10 -18l-8 -24l4 -252l8 -24l32 -32h16h48l100 -4l44 4l64 -16l8 -24l-8 -24l-24 -8l-56 -8h-32l-102 2 l-46 -2l-24 -8l-10 -18l4 -134l10 -56v-164l8 -24l26 -24l216 12l38 2l40 26h16l8 -24l-8 -24l-10 -30l-54 -34h-48h-48h-48l-74 -6l-30 -2l-64 2l-66 -2l-24 18v16v40l8 24v356l-8 24l-16 28l-24 8h-32l-24 8z" />
<glyph unicode="F" horiz-adv-x="576" d="M46 992l8 24l24 8h338l24 -8l32 -32v-16l-24 -8h-32l-24 -8l-12 2l-24 -8h-64l-24 8l-44 6h-32l-24 -8l-8 -24v-160l8 -24l24 -8h288l24 -8l8 -24l-8 -24l-24 -8l-24 8l-18 2l-24 8h-32l-24 -8l-14 -2l-24 -8h-128l-24 -8l-8 -24v-384l8 -24l16 -16l8 -24v-32l-8 -24 l-24 -12l-64 22l-8 24l-12 202l2 300l-8 24l-16 16v16l16 16l8 24v160l-8 24l-16 16z" />
<glyph unicode="G" horiz-adv-x="672" d="M52 644l8 50l18 72l10 22l14 34l44 66l30 40l26 36l40 38l76 52l34 22l24 10l24 8l72 18l24 2l56 10l22 -8l22 -46l-14 -18l-24 -6h-30l-44 -6l-24 -8l-28 -6l-24 -10l-52 -32l-56 -40l-48 -38l-16 -24l-28 -46l-24 -50l-10 -26l-10 -24l-8 -24l-14 -46l-4 -36v-206 l4 -44l8 -38l6 -24l20 -40l80 -98l70 -44l20 -8l52 -14l48 -10l22 -6l24 6l6 24l8 52l-2 48l8 98l4 78l-10 24h-16l-138 -4l-20 -8l-24 -8l-20 -6h-94l-20 6l-10 24l10 24l28 28l24 10h304l24 -10l28 -28l10 -24v-30l-10 -22v-168v-16l-2 -54l4 -86l-6 -22l-20 -24l-90 -4 h-28l-24 8l-34 6l-22 6l-44 10l-22 8l-62 32l-90 90l-24 36l-16 22l-18 30l-16 58l-6 58z" />
<glyph unicode="H" horiz-adv-x="800" d="M52 996v64l20 20l24 8l36 -10l8 -24l2 -50l4 -52l12 -66l2 -22l8 -248l4 -52l8 -24l2 -66l8 -24l24 2l24 8l16 6l24 8l140 4l24 8h128l24 8l8 24l-26 314v160l8 24l24 8l24 -8l8 -24l24 -264l6 -38l6 -136l8 -24l12 -58l8 -24l8 -136l8 -24l14 -80v-16l-16 -16l-16 -16 h-16l-32 32l-8 24l-12 174l-8 24l-24 8l-238 -12l-24 -8l-34 -4l-24 -8h-32l-24 -8l-32 -32l-8 -24l6 -230l-8 -24h-16l-66 24l-8 24l-12 272l-8 76l-4 54l-4 344l-4 56l-8 40z" />
<glyph unicode="I" horiz-adv-x="288" d="M64 800v256l8 24h16l32 -32l8 -24l24 -264l12 -254l14 -90l8 -24l6 -92l8 -24l16 -60l8 -24l-8 -24l-24 -8h-32l-24 8l-8 24l-12 100l-12 68l-8 24l-24 290l2 52l-8 38z" />
<glyph unicode="J" horiz-adv-x="608" d="M64 160v32l8 24l24 8l24 -8l80 -80l24 -8l96 12l24 8l26 24l16 30l16 48l12 54l-10 456l-4 42l-6 66l-8 162l8 60l30 22h16l24 -14l18 -70l4 -46l12 -132l2 -42l6 -42l6 -30l6 -240l6 -48l2 -120l-6 -48l-8 -52l-8 -24l-10 -14l-14 -28l-16 -30l-24 -28l-32 -32l-24 -8 l-44 -12l-24 -8l-36 -4l-46 2l-78 30l-18 10l-34 22l-32 32z" />
<glyph unicode="K" horiz-adv-x="768" d="M44 1050l2 26l32 32l34 4l8 -24l8 -26l8 -24l8 -22l6 -58l2 -126l8 -24l24 -8l24 8l16 16l46 32l146 128l36 22l28 10l128 96l24 8h32l24 -8v-32l-118 -84l-58 -44l-48 -26l-48 -38l-32 -32l-8 -24l8 -24l132 -116l44 -28l128 -128l8 -24l-8 -24l-24 -8l-24 8l-64 64 l-64 64l-176 176l-24 8l-24 -8l-112 -92v-68l2 -36l30 -220v-16v-48l8 -24l24 -136l8 -24v-32l-8 -24l-32 -32h-16l-56 18l-8 24l-24 168l-6 32l-18 252l-8 24l-4 68l-16 362l-4 24z" />
<glyph unicode="L" horiz-adv-x="704" d="M50 1102l8 24l24 8l58 -6l18 -22v-16l-2 -26l-8 -24l6 -190l8 -24l10 -50l4 -36l4 -52v-96l10 -400l8 -24l24 -8l54 4l52 4l24 8h36h48h44h128l24 -8l8 -24l-8 -24l-24 -8l-342 -16h-30l-84 -8h-16l-52 8l-12 24v16l12 26l2 40l-8 300v30l-2 98l-18 200l-2 44v66l-2 32z " />
<glyph unicode="M" horiz-adv-x="928" d="M50 978l12 22l34 16h16l30 -4l34 -28l32 -32l64 -96l96 -128l82 -96h16l90 92l154 180l12 18l8 26l10 30l28 38h16l32 -32l8 -24l6 -518l8 -24l10 -42l8 -24v-64l-8 -24l-16 -16l-16 -16h-16l-32 32l-8 24v512l-8 24h-16l-162 -192l-66 -84l-44 -28h-16l-32 32l-28 44 l-68 84l-96 128l-80 112h-16v-16l16 -16l8 -24l24 -488l6 -34l2 -246l-8 -24h-16l-44 8l-12 38l-6 42l-26 230l-2 40l-16 410l-2 70l4 26z" />
<glyph unicode="N" horiz-adv-x="770" d="M64 828v36l2 194l16 4h16l24 -12l14 -18l48 -48l96 -128l96 -128l64 -96l64 -96l24 -40l56 -72h16l-2 24l-8 24l-6 16l-6 30l-2 58l-4 294l-8 24l-12 42l-8 24v32l8 24l24 8l40 -4l30 -26l8 -24l2 -244l4 -54l8 -62l4 -42l24 -288l8 -24v-32l-8 -24l-22 -8l-30 6l-38 48 l-28 42l-28 56l-86 124l-64 96l-96 128l-82 118l-32 32l-24 -12l-8 -24l12 -220l2 -64l12 -50v-16l4 -40l4 -32v-224l-8 -24l-24 -8l-24 8l-8 24l-12 80l-8 24l-4 64l-8 24l-22 376l-4 34z" />
<glyph unicode="O" horiz-adv-x="700" d="M2 326v332v74l20 144l14 30l96 94l70 70l36 12h94l36 -12l20 -6l34 -12l52 -18l40 -26l74 -84l14 -36l28 -306l-6 -32l-54 -190l-14 -22l-142 -140l-56 -36l-38 -12h-118l-32 12l-64 36l-92 92zM82 462l8 -42l6 -50l12 -40l34 -64l62 -40l42 -10h24l102 50l100 104l14 38 l22 132l14 38l2 46l12 38l-6 96l-30 100l-28 46l-90 78l-74 10l-76 -24l-38 -14l-52 -50l-12 -40l-24 -158l-10 -42l-6 -66v-78z" />
<glyph unicode="P" horiz-adv-x="574" d="M50 838l8 24l30 10l8 24v224l8 24h16l30 -12l10 -44l184 14l36 -8l28 -14l36 -24l28 -40l16 -48v-48l-10 -58l-50 -62l-40 -20l-102 -20h-40h-34h-38l10 -160l4 -42l22 -374l-8 -24l-38 -12l-28 20l-8 24l-24 328l-8 24v128l-8 120l-30 22zM160 896l10 -44l30 -12l24 -8 h128l24 8l32 32l8 24v64l-8 24l-32 32l-34 14l-24 10l-24 8h-64l-24 -8l-38 -24l-8 -24v-96z" />
<glyph unicode="Q" horiz-adv-x="864" d="M44 704l2 46l30 108l38 82l54 76l126 136l18 24l-48 16l-8 24l8 24l24 8h64l24 -8l16 -16l24 -8l72 -40l64 -64l48 -64l24 -42l16 -46l24 -232l2 -40l-4 -64l-6 -54l-4 -32l48 -16l50 -28l42 -54v-16l-24 -8h-32l-70 38l-36 10l-14 -24l-16 -48l-2 -24l-8 -24l-22 -48 l-32 -64l-64 -64h-16l-8 24l8 24l38 124l28 86l4 22l6 28l8 24l-96 46l-86 38l-30 32v16l24 22h36l24 -8l16 -16l24 -8l110 -42l12 36l4 50l4 182l-6 48l-10 64l-38 78l-30 30l-62 32l-48 12l-38 -12l-34 -24l-112 -140l-20 -32l-24 -72l-8 -24l-30 -136v-24l6 -134l8 -46 l40 -148l16 -32l56 -72l48 -48l48 -16h48l24 8l24 -8v-16l-32 -32l-24 -8h-96l-24 8l-96 96l-76 96l-8 24l-26 92z" />
<glyph unicode="R" horiz-adv-x="812" d="M62 1096l34 16l40 20l-8 48v28l24 8l24 -8l16 -48l26 2l40 10l24 8l52 -2l26 2l46 -6l26 -16l54 -52l8 -24l10 -48l-6 -48l-8 -28l-14 -32l-80 -70l-40 -18l32 -38l312 -346l54 -68l22 -34l4 -26l-28 -24h-14l-24 8l-90 98l-64 64l-158 200l-38 48l-34 34l-38 46l-30 -12 l18 -340l20 -310v-16l-24 -8l-74 20l-8 24l4 88l-4 30l-10 94l-4 290l-8 52l-8 96l-32 12l-20 48l8 20l44 18l-4 42l-4 38l-10 74l-30 -12l-24 -8l-24 8zM206 1088l26 -166l24 -8l36 6l68 20l42 28l30 64l-2 36l-14 24l-42 20l-64 8l-60 -12l-24 -8z" />
<glyph unicode="S" d="M64 864v32l4 42l10 24l22 30l68 56l34 20l30 12l24 8h96l24 -8l32 -32v-16l-30 -26l-24 8l-58 4l-38 -8l-48 -14l-38 -42l-20 -30l-6 -46l8 -24l14 -46l20 -38l60 -74l160 -192l22 -36l20 -30l8 -24l12 -32l8 -24l6 -28l6 -30l-10 -44l-8 -24l-10 -28l-22 -36l-32 -32 l-36 -24l-28 -8h-16h-40l-24 8l-40 16l-24 8l-64 64l-22 38l-10 26l-8 24l8 24l32 32h16l32 -32l8 -24l8 -22l18 -32l54 -56l24 -8h32l24 8l28 38l8 24l4 40v48l-8 56l-8 24l-22 32l-24 36l-66 90l-96 114l-30 34l-18 26l-22 40l-26 60z" />
<glyph unicode="T" horiz-adv-x="906" d="M14 1120l8 24l24 8h320l24 8l16 16l24 8h32l24 -8h20h16h12l24 8h288l24 -8l8 -24l-6 -42l-24 -8h-288l-24 -8l-8 -24l-2 -110v-160l16 -452l12 -124l4 -32v-64l-8 -24l-32 -32h-16l-44 34l-10 88v30l-16 378v24v80l-8 44l-8 84l-6 66l-2 156l-8 24l-24 8l-216 -6l-24 -8 l-34 -10l-24 -8l-24 8l-32 32z" />
<glyph unicode="U" horiz-adv-x="660" d="M50 1082l8 24l38 24l36 -12l8 -24l8 -340v-44l2 -90l12 -100l6 -32l12 -30l8 -24l12 -42l32 -64l68 -76l56 -20l30 14l30 44l20 54l12 136l16 110l8 24l22 196v160l8 24l42 -2h32l24 -8l8 -24v-40l-16 -182l-28 -232l-8 -54l-14 -44l-14 -36l-18 -58l-18 -46l-22 -44 l-34 -40l-42 -20l-30 -8l-46 -2l-24 6l-38 12l-40 30l-32 32l-50 98l-8 24l-30 92l-14 46l-16 130l-2 48z" />
<glyph unicode="V" horiz-adv-x="704" d="M64 1056l8 24l24 8l24 -8l32 -32l32 -64l16 -48l32 -64l14 -28l14 -38l20 -46l8 -24l30 -78l8 -24l24 -72l8 -24l24 -72l8 -24l36 -120l10 -26l16 130l4 46l24 168l32 192l8 24l24 104l14 130l8 24l4 22l8 24l18 30l34 14h16l14 -24l-44 -260l-2 -32l-6 -56l-18 -66 l-24 -114l-4 -48l-10 -68l-10 -58l-6 -150l-24 -200l-8 -24l-66 -36h-16l-44 108l-8 24l-18 56l-24 72l-8 24l-66 158l-8 24l-36 108l-8 24l-36 88l-8 24l-54 158l-8 24z" />
<glyph unicode="W" horiz-adv-x="1024" d="M64 1004l2 28l8 24l24 8l34 -12l8 -24l22 -124l22 -214l8 -52l24 -172l6 -42l2 -46l8 -24h16l40 120l8 24l24 72l8 24l24 104l32 96l8 24l16 16l8 24v96l8 24l32 32h16l32 -32l32 -64l8 -24l32 -160l50 -212l6 -20l8 -24l16 -74l16 -86l8 -24l32 -32h16l8 24l8 120 l22 168l10 56l24 168l20 200l4 58l8 42l18 22l24 8h32l24 -8l8 -24l-22 -98l-8 -42l-4 -70l2 -100l-10 -116l-8 -24l-24 -168l-8 -24l-56 -332l-8 -24l-32 -32l-24 -8l-24 8l-32 64l-64 100l-8 24l-24 72l-8 24l-14 56l-10 48l-8 24l-38 206l-8 24l-26 50h-16l-16 -48 l-6 -32l-10 -38l-16 -90l-94 -306l-8 -24l-64 -128l-24 -8l-24 8l-8 24l-4 50l-8 24l-12 30l-8 24l-26 234l-40 232l-6 38z" />
<glyph unicode="X" horiz-adv-x="704" d="M64 220l12 42l36 80l52 96l58 130l26 48l26 40l6 24l-8 36l-26 48l-46 104l-42 94l-10 26l-8 24l24 44h16l36 -34l44 -66l52 -132l16 -48h16l32 32l30 42l56 90l10 28l16 48l12 22l20 42l24 8h32l24 -8v-16l-4 -20l-8 -24l-12 -28l-8 -24l-128 -238l-18 -34l-12 -22 l38 -80l72 -180l48 -124l32 -78l18 -42l8 -24l6 -30l-24 -24l-34 -8l-32 32l-60 142l-44 98l-16 30l-30 64l-40 140l-24 10l-20 -50l-92 -226l-64 -96l-32 -32l-48 2z" />
<glyph unicode="Y" horiz-adv-x="736" d="M64 1120l8 24l24 8l24 -8l54 -62l42 -66l112 -144l24 -8l24 8l32 32l58 100l80 136l18 38l32 32l44 6l24 -8l8 -24l-8 -24l-16 -16l-48 -80l-64 -96l-64 -96l-32 -64l-8 -34l-2 -30v-56l2 -32l8 -104v-48l4 -78l4 -298l-8 -24h-16l-56 8l-8 24l-6 68l-8 112l6 66v66 l-12 256l-8 24l-34 84l-34 32l-128 156l-64 96z" />
<glyph unicode="Z" horiz-adv-x="832" d="M56 158l10 46l24 8l26 10l24 8l44 84l14 38l36 82l40 82l8 24l32 64l36 72l32 64l52 98l8 24l32 64l38 76l24 40v16l-24 8h-330l-24 8l6 64l24 8l56 8l44 -2l290 -2l24 8l36 20h54l4 -24l-42 -88l-54 -98l-32 -64l-32 -64l-152 -328l-8 -24l-16 -30l-48 -98l-32 -64 l-26 -54v-16l10 -26l24 -8h128h96h192l24 -8l32 -32l8 -24l-8 -24l-24 -8h-192l-104 8l-24 -8h-128h-96h-64l-24 8l-24 14l-16 16z" />
<glyph unicode="[" horiz-adv-x="480" d="M64 1216l8 24l24 8l204 12l12 -20v-16l-18 -20l-16 -16l-54 -4l-76 -14l-24 -8v-16l16 -16l8 -24l12 -266v-40l24 -328l4 -52l4 -228l8 -24l32 -32l24 -8h96l24 -8l32 -32v-16l-24 -8h-192l-24 8l-32 32l-8 24l-28 282l-4 38z" />
<glyph unicode="\" horiz-adv-x="896" d="M64 1216l8 24l64 16h16l16 -16l80 -128l8 -24l56 -104l64 -96l64 -96l80 -144l16 -16l16 -48l80 -112l64 -96l64 -96l70 -94l16 -16l8 -24l-24 -24l-28 6l-22 10l-118 132l-124 162l-38 68l-118 180l-16 48l-32 64l-84 128l-64 96l-32 64l-8 24l-74 88z" />
<glyph unicode="]" horiz-adv-x="640" d="M64 1256v16l32 32l24 8h192l24 8l48 48l24 8l24 -8l8 -24l38 -598l8 -72l18 -196l8 -38l16 -96l8 -24l24 -168l8 -120l-8 -24l-16 -16l-8 -30l-32 -26l-200 -24l-24 -8l-24 8l-32 32l-8 24l8 24l64 16h48l104 24l24 8l8 24l-24 104l-8 24l-16 92v38l-8 102v16l-8 72 l-6 176l-2 40l-48 432l-8 24v32l-8 24l-24 8l-136 -24h-48l-48 4z" />
<glyph unicode="^" horiz-adv-x="384" d="M64 928v32l24 40l16 48h16l8 -24v-32l-8 -24l-12 -28l-20 -36h-16zM128 1088v32l8 24l24 8l24 -8l16 -48l112 -112l8 -24l-8 -24l-24 -8l-24 8l-16 48l-64 64l-48 16z" />
<glyph unicode="_" horiz-adv-x="1152" d="M64 160l8 24l32 32h16l16 -16h48l16 16l24 8h320l136 8h16h144l24 -8h160l24 -8l32 -32v-16l-24 -8h-32l-24 -8h-144h-48h-80l-24 8h-32l-24 -8l-62 -2h-64l-24 -8l-26 -6l-24 -8h-352l-24 8z" />
<glyph unicode="`" horiz-adv-x="352" d="M64 1306l4 14l14 6l12 -6l14 -14l22 -40l34 -56l8 -26l4 8l10 -32l-4 -14l-10 -8l-8 -10h-8l-18 18l-8 28l-44 64l-4 14v18l-4 14l-10 10z" />
<glyph unicode="a" horiz-adv-x="554" d="M64 60l8 24l16 14l8 24l56 188l8 24l64 212v30l-8 22l-16 16l-8 22l8 22l48 16l40 -38l8 -22l16 -16l8 -22l56 -160l20 -38l50 -96l16 -14l8 -24l36 -106l-2 -40l-16 -14l-16 -16h-16l-8 24l-14 56l-8 22l-18 34l-20 32l-82 4l-50 2l-24 -6l-32 -32l-16 -44l-24 -68 l-8 -24l-16 -58l-32 -2l-34 16zM224 334l8 -24l24 -6h32l46 4l6 32l-28 46l-32 30h-16z" />
<glyph unicode="b" horiz-adv-x="502" d="M64 406v234l8 22h46l16 -14l162 26l48 -4l34 -26l22 -42v-16v-20l-6 -24l-16 -30l-8 -22l-26 -32l-24 -30l46 -14l34 -24l30 -32l8 -22v-60l-8 -24l-20 -32l-74 -58l-62 -32l-54 -6h-72l2 -70l-2 -20l-32 -4l-22 8l-10 80l-18 252zM126 306l14 -70l8 -34l10 -18h62l80 22 l38 32l30 44l8 24l-8 22l-30 24l-18 8l-38 6h-94l-22 -8l-32 -30zM126 488l8 -42h40l84 16l24 6l54 64l8 48l-8 22l-22 14l-28 2l-100 -24l-28 -10l-32 -30v-36v-30z" />
<glyph unicode="c" horiz-adv-x="416" d="M34 340l12 108l10 34l30 66l62 54l58 34l24 10l54 8l24 -8l8 -20l-8 -22l-24 -8l-44 -12l-24 -8l-42 -26l-26 -40l-22 -62l-8 -36l-6 -120l10 -38l44 -86l64 -58l28 -12h58l26 -10l6 -14l-8 -22l-16 -14l-50 -6l-36 10l-32 16l-40 22l-54 72l-70 160z" />
<glyph unicode="d" horiz-adv-x="512" d="M76 604l8 22l26 28h16l16 -14l48 8h64l24 -6l64 -30l80 -68l22 -42v-88l-18 -98l-8 -22l-30 -54l-36 -58l-104 -110l-58 -8h-30l-24 8l-8 22l-32 292l-6 146l-6 50zM160 560l8 -170l22 -210l8 -20l32 -2l80 88l38 52l6 22l28 88l-2 36v58l-8 22l-28 34l-66 24l-24 8h-64 l-22 -8z" />
<glyph unicode="e" horiz-adv-x="512" d="M64 416l8 22l40 10v34l-8 44v44l4 64l28 10l24 8h64l24 -8l104 -22l24 -6l8 -24l-8 -22h-16l-80 16l-24 6h-32l-24 -6l-8 -22v-90l8 -22l24 -6h192l24 -8l8 -22l-8 -22l-24 -8h-64l-24 -8l-98 -4l-24 -8l-4 -38l-2 -82l24 -126l8 -22l24 -8h128l24 -6v-16l-12 -22h-32 l-24 -6l-52 -8l-146 -4l-24 8l-14 32v16l48 14l-2 32l-14 56l-8 142l-4 32l-52 14z" />
<glyph unicode="f" horiz-adv-x="448" d="M64 614l8 22l16 16l134 24l24 6l16 16h48l32 -30v-16l-32 -20h-16l-48 -10l-46 -16l-8 -22v-62l8 -22l16 -34l30 2l96 16l30 -14l2 -32l-16 -16l-16 -14h-16l-72 -8h-32l-6 -12v-16v-10l6 -146l8 -22l16 -92l-8 -50l-22 -12h-16l-32 30v16l-8 68l-8 178l-14 62l-54 -8 l-12 22l4 28l28 18l32 12l-8 56v30l-8 24l-48 14z" />
<glyph unicode="g" horiz-adv-x="524" d="M58 398l14 50l14 34l16 22l32 56l62 56l62 28l22 8h94l22 -8l8 -20l-8 -22l-22 -6h-94l-22 -8l-62 -56l-32 -56l-8 -22l-22 -62l-8 -22v-112l8 -22l30 -56l94 -84l22 -8h32l22 8l32 28l8 20v86l-8 20l-24 8h-124l-22 6l-8 22l8 20l22 8l54 6h108h16l16 14h16l30 -28 l8 -20l-8 -22l-16 -14l-8 -20v-86l-6 -20l-32 -56l-30 -28l-24 -8h-92l-24 8l-46 42l-68 46l-40 52l-8 22z" />
<glyph unicode="h" horiz-adv-x="590" d="M64 200v16l16 16l8 24v384l8 24h16l20 -18l12 -46l8 -24v-256l8 -24l24 -8l104 14l88 18l24 8l-16 64l-16 94l-8 24l-16 66l-8 24l-16 16l-8 24l8 24l24 8l24 -8l32 -32l8 -24l24 -72l8 -24l24 -72l16 -80l16 -80l8 -24l8 -56l16 -34l8 -24l8 -90l-16 -12l-38 6l-10 26 l-16 48l-24 72l-8 24l-26 20l-38 -4l-24 -8l-120 -8l-34 -4l-30 -28l-8 -24v-32l8 -24l14 -30v-16l-30 -18h-16l-28 16l-20 128z" />
<glyph unicode="i" horiz-adv-x="224" d="M72 616v16l32 32h16l32 -32l8 -24v-512l-8 -24l-24 -8h-32l-20 22v160l12 114v16l8 72v32v96l-8 24z" />
<glyph unicode="j" horiz-adv-x="416" d="M64 202v34l8 26l26 8l26 -8l16 -28l8 -26v-34l28 -32l26 -10h34l26 10l24 42l-12 218l-2 26l-36 116l-8 26l-18 18l-8 26l8 26l26 8l26 -8l34 -34l8 -26l26 -78l6 -28l10 -128l2 -32l6 -106v-52l-6 -32l-24 -42l-24 -18h-98l-26 8l-70 34l-20 26z" />
<glyph unicode="k" horiz-adv-x="626" d="M68 326l56 42v28l-4 66l-8 22l-24 100l-8 24l-4 16v14l12 8l34 2l16 -16l32 -72l22 -70l18 -42h28l92 116l28 42l22 32l24 8l24 -8l4 -24l-12 -24l-8 -22l-32 -52l-62 -92v-16l46 -24l80 -58l48 -32l94 -86l8 -24v-30l-10 -18l-24 -8l-22 2l-78 78l-128 92l-62 30l-24 8 l-24 -8l-8 -22v-278l-8 -22l-24 -8l-24 8l-6 22l-4 94l-4 22l-4 140l-58 6l-8 8z" />
<glyph unicode="l" d="M88 522v80l16 48l24 8l24 -8l8 -24l12 -432l8 -24l24 -8l244 16l24 -8l8 -24l4 -22l-8 -24l-24 -8l-104 -4l-16 -4h-112h-16h-48l-48 16l-8 24l-10 372zM424 122h16v16h-16v-16z" />
<glyph unicode="m" horiz-adv-x="736" d="M64 520v18l32 36h16l156 -188l88 -124l14 -8l96 124l68 104l16 56l24 46h34l24 -10l8 -28v-36l12 -70l20 -262l8 -28l4 -16v-18l-4 -20h-48l-16 18l-8 28v184l-10 68l-10 22l-38 -26l-60 -80l-36 -68l-18 -54l-32 -38h-16l-64 60l-22 32l-124 148h-16l-8 -28l4 -54l4 -46 l24 -194l-10 -22l-14 -6l-24 10l-10 64l-8 28l-20 184l-12 148l-8 26z" />
<glyph unicode="n" horiz-adv-x="640" d="M64 520v16l32 32h16l64 -64l80 -80l96 -64l64 -32l64 -32h16l8 24l-4 26l-10 60l-8 24l-24 96l-8 24l-10 90l8 24h24l24 -32l16 -48l6 -26l18 -46l8 -24l24 -104l24 -218v-30l-12 -22l-20 -10h-16l-16 48l-62 58l-54 30l-64 40l-172 128h-16l-8 -24l2 -158l6 -26l16 -112 l-8 -24l-48 2l-16 30v44l-12 76l-4 40l-8 184v48v16z" />
<glyph unicode="o" horiz-adv-x="562" d="M50 240l16 64l16 38l26 46l136 182l30 14l32 6l36 -8l92 -36l24 -22l20 -46l14 -40v-120l-6 -28l-10 -34l-10 -32l-10 -28l-30 -50l-52 -66l-18 -16l-20 -10l-114 -8l-28 6l-40 10l-64 42l-26 38l-8 32zM120 200l12 -36l40 -42l32 -10h84l34 20l26 30l26 40l16 30l20 52 l12 82l-6 38l-2 42l-10 32l-20 30l-22 12h-22l-36 -8l-48 -34l-34 -32l-22 -36l-24 -50l-18 -34l-22 -56l-12 -38z" />
<glyph unicode="p" horiz-adv-x="500" d="M64 344l16 16l16 8l-8 272l8 24l24 8l24 -8l8 -24v-32l8 -24l24 -2l72 18l24 4l96 4l24 -8l16 -16l30 -54l2 -26l-16 -44l-128 -132l-64 -32l-48 -16l-8 -24v-32l12 -58l2 -26l6 -78l-8 -24l-24 -8l-24 8l-8 24l-2 26l-10 54l-4 32l-6 46l-6 28l-8 48l-24 16l-14 8z M160 456l2 -32l14 -42l12 -8l60 6l20 10l46 24l60 70l8 24l-14 28l-24 8h-32l-28 -2l-74 -14l-34 -18l-12 -26z" />
<glyph unicode="q" horiz-adv-x="566" d="M64 416l6 36l14 36l46 72l42 30l28 8h74l24 -12l34 -48l8 -24l6 -198l14 -20l176 -176l8 -24l-8 -24h-16l-152 138l-20 12l-32 28l-20 -34l-36 -48l-44 -32l-24 -6l-30 4l-60 40l-14 20l-8 22zM138 432l4 -182l4 -16l12 -18l32 -18h20l32 20l44 72l-16 24l-38 46l-8 24 l12 18l14 2l14 -12l34 -38l-6 150l-8 12l-14 16l-32 10l-16 -2l-14 -4l-30 -20l-32 -52l-6 -16z" />
<glyph unicode="r" horiz-adv-x="526" d="M88 480l4 72l10 44l18 12h192l24 -8l32 -32l8 -24v-32l-8 -24l-56 -64l-36 -22l-20 -10l174 -178l24 -36l42 -58l8 -24l-8 -24h-16l-22 10l-98 128l-90 102l-38 28l-38 8l-12 -4l2 -24l8 -154l10 -54l8 -24l2 -28l-4 -20l-24 -8l-24 8l-8 24l-8 20l-12 80l-4 36l-4 26 l-14 110l-8 24l-6 32zM152 480l8 -32l16 -8h64l32 16l32 32l14 44l-14 18l-24 8h-96l-24 -8l-8 -38v-32z" />
<glyph unicode="s" horiz-adv-x="384" d="M54 522l2 18l26 50l32 30l20 4h10l18 -4l22 -12l58 -60l-10 -20h-14l-16 16l-26 26l-32 10l-20 -8l-12 -16l-4 -28l4 -16l136 -160l32 -46l8 -18l20 -60l12 -60v-64l-8 -24l-16 -16l-14 -14l-18 -6l-48 -2l-32 6l-28 12l-24 10l-60 42l-8 24v32l12 10l10 2l72 -66l56 -12 l34 4l10 8l10 40l-8 42l-12 28l-36 64l-152 216z" />
<glyph unicode="t" horiz-adv-x="604" d="M10 504v20l20 32l44 6l150 8l34 6l6 24l22 10h32l4 -10l16 -20l32 2l22 6l30 6l118 16l24 -10l8 -30l-14 -14l-24 -10l-152 -14l-24 -8l-32 -40l6 -70l2 -16l16 -174l8 -28l12 -26l6 -30v-76l-2 -22l-24 -10l-24 10l-16 20v36l-6 30l-8 30l-10 28l-22 202l-6 48l-6 36 l-6 26l-22 4l-190 -8z" />
<glyph unicode="u" horiz-adv-x="432" d="M64 396v162l10 30l34 4l22 -4l10 -30v-80l2 -30l4 -112l4 -38l28 -146l12 -24l16 -4l56 18l8 32l18 120v28l4 196l10 30l28 10l28 -10l10 -30l-6 -240l-4 -34l-16 -94l-10 -28l-16 -44l-34 -36l-28 -10h-38l-28 10l-78 82l-8 28l-36 214z" />
<glyph unicode="v" horiz-adv-x="418" d="M60 544l10 18l8 6h16l18 -36l22 -78l26 -70l8 -24l32 -64l24 -72l8 -24l16 -18l32 18l8 24l14 140l2 24l16 124l8 24l24 8l18 -12l8 -12l-14 -104l-16 -160l-4 -24l-30 -90l-8 -24l-26 -46l-24 -8l-24 8l-40 88l-12 22l-12 18l-16 48l-24 72l-22 60l-8 24z" />
<glyph unicode="w" horiz-adv-x="718" d="M32 572v40l10 22l22 6l24 -38l8 -30l40 -144l32 -78l24 -86l8 -18l26 -32l20 26l56 120l2 12l24 76l24 8l24 -8l16 -58l96 -116h16l24 46l74 166l24 58l16 8h32l14 -12v-18l-6 -18l-66 -172l-32 -78l-48 -96l-24 -10l-24 10l-114 162h-16l-30 -66l-34 -86l-2 -18l-14 -40 l-8 -30l-22 -38l-24 -10l-24 10l-12 16l-20 100l-32 76l-8 30l-8 36l-48 128l-8 28l-24 88z" />
<glyph unicode="x" horiz-adv-x="566" d="M12 106l14 30l18 16l32 44l36 44l18 28l78 102l12 20l-12 42l-8 24l-34 68l-50 54l-10 20l12 18l24 8h24l24 -32l60 -118l30 -50l8 4l72 124l8 6l28 2l20 -30v-16l-64 -90l-20 -30l-6 -30l22 -28l72 -96l116 -126l10 -16l-8 -26l-24 -4l-28 4l-56 80l-146 166l-14 8 l-72 -74l-56 -80l-26 -50l-18 -50l-24 -8h-34z" />
<glyph unicode="y" horiz-adv-x="610" d="M10 552v16l24 8l24 -8l40 -24l30 -14l74 -42l64 -32h16l128 128l64 64l32 54l22 22l10 4l14 -10l18 -38l-32 -64l-176 -176l-12 -66v-16l8 -66l6 -46l10 -28l6 -24l6 -162l-8 -24h-16l-24 6l-6 30l-2 26l-6 36l-2 22l-14 90l-6 26l-4 20l-8 24l-8 56l-64 64l-88 52 l-64 32z" />
<glyph unicode="z" horiz-adv-x="508" d="M48 580v16l12 12l28 10l22 4h18l24 8l164 10l24 8l16 16l24 8l24 -8l8 -24l-8 -24l-16 -16l-8 -24v-32l-8 -24l-24 -72l-24 -40l-32 -64l-32 -64l-32 -64l-8 -24v-32l8 -24l26 -4l22 4l18 8l24 8l126 8l24 -8l8 -24l-8 -24l-16 -16l-14 -6l-24 -4h-32l-24 4l-50 -10 l-88 -8l-24 -8l-72 -24l-24 8l-32 32v16l32 32l38 16l8 24l10 64l8 24l32 64l14 18l98 190l8 24l-6 30l-24 8h-64l-24 -8l-24 -10l-40 -6h-48h-16z" />
<glyph unicode="{" horiz-adv-x="704" d="M64 552v16l24 8l106 28l42 28l38 28l28 24l10 20v32l-8 24l-18 52l-8 24l-12 50l-4 44l-10 64l-2 122l8 58l12 28l20 36l128 128l24 8l24 -8l8 -24l-8 -24l-52 -26l-20 -22l-16 -16l-24 -26l-14 -26l-22 -44l-8 -34l4 -38l8 -24l12 -44l8 -24l22 -148l8 -62l4 -48l2 -24 v-28l-6 -28l-12 -24l-20 -24l-60 -32l46 -52l10 -20l8 -24l16 -124v-52l10 -122l10 -52l46 -62l42 -10l24 8l64 32l16 16l24 8l24 -8l8 -24v-32l-8 -24l-24 -8l-40 -24l-24 -8h-96l-56 8l-32 32l-34 56l-14 28l-16 62l-8 38l4 230l-8 24l-32 32l-24 8h-96l-24 8z" />
<glyph unicode="|" horiz-adv-x="288" d="M64 1076v54l8 20l30 28l24 6l22 -6l8 -22v-26l8 -20l14 -154l6 -20l10 -34l8 -74v-678l-8 -30l-14 -14l-24 -6l-22 6l-16 42l-16 12l-8 22l-6 720v32l-16 80z" />
<glyph unicode="}" d="M22 1304l2 32l10 22l26 6l42 20l24 6l96 -10l54 -14l30 -36l28 -58l10 -30l10 -62l4 -40l-26 -228l4 -24l30 -36l22 -10l96 -10l24 -10l28 -34l-2 -16l-24 -6l-108 -18l-46 -24l-40 -24l-30 -20l-12 -20l-4 -32l6 -24l12 -54l6 -24l8 -52l-2 -44l4 -64l-10 -122l-14 -56 l-14 -28l-24 -32l-140 -116l-24 -4l-24 10l-6 24l10 24l56 20l22 20l16 14l28 24l16 24l26 42l12 32v38l-6 26l-8 44l-6 26l-6 148l-2 64v48l2 24l2 28l8 26l16 24l22 22l62 24l-40 58l-8 20l-6 24l-2 126l4 52l2 122l-4 52l-40 66l-40 16l-26 -6l-66 -26l-18 -14l-24 -6 l-24 10z" />
<glyph unicode="~" horiz-adv-x="576" d="M64 640v64l8 24l18 36l44 46l34 14l24 4l24 -4l94 -106l34 -54l16 -26l24 -26l32 -4l36 30l8 48l-4 88l-4 32l6 18l18 20h16l8 -24l14 -188l-10 -48l-16 -16l-48 -48l-24 -8l-24 8l-84 100l-40 56l-66 76l-34 8l-28 -14l-26 -66l-4 -34v-34l-38 4z" />
<glyph unicode="&#xa1;" horiz-adv-x="224" d="M64 128l4 312l2 42l6 50l4 48l4 50l8 96l4 234l8 24l24 8l24 -8l8 -24l-10 -450l-6 -38l-6 -48l-4 -44l-6 -252l-8 -24l-24 -8l-24 8zM64 1184l8 24l32 32l24 8l24 -8l8 -24v-32l-8 -24l-24 -8h-32l-24 8z" />
<glyph unicode="&#xa2;" horiz-adv-x="640" d="M64 704v32l10 36l38 44l56 40l64 32l24 8l84 28l10 18l2 306l8 24l24 8l24 -8l8 -24v-288l6 -36l28 -8l24 -8l38 -12l24 -8l30 -24v-22l-14 -2l-20 10l-26 10l-58 4l-24 -8l-8 -24v-128l6 -48h22l32 12l28 12l16 16l24 8l24 -8l8 -24l-8 -24l-14 -22l-18 -10l-24 -8 l-34 -10l-24 -8l-30 -22l-8 -24v-64l4 -28l28 -196l-8 -24l-24 -8l-24 8l-14 32l-18 82l-4 38l-8 160l-4 24l-22 2l-90 8l-32 6l-18 8l-46 24l-58 52zM130 714l6 -24l30 -36l26 -14l48 -14l28 -6l28 -4l24 2l28 12l4 42v128l-6 42l-32 -4l-26 -6l-24 -8l-64 -32l-64 -54z " />
<glyph unicode="&#xa3;" horiz-adv-x="832" d="M64 768l8 24l24 8h128l24 8l8 24l4 88l4 32l24 72l8 24l32 64l20 40l48 52l60 36l24 8l24 -8l8 -24l-8 -24l-24 -8l-20 -16l-60 -62l-24 -42l-24 -72l-8 -24l-24 -104l8 -24l24 -8h96l24 -8l8 -24l-8 -24l-24 -8h-128l-14 -10l-8 -24l4 -54l4 -34v-18l-10 -60l-2 -24 l-6 -96l-8 -24h-16l-8 24v288l-10 16l-24 8h-64l-24 -8l-20 -4l-24 -2l-24 8zM96 192l8 24l32 32l48 16l96 96l16 48h16l8 -24v-32l8 -24l24 -8h30l26 -8l20 -6l44 -26l16 -10l24 -10l128 -4l24 8l54 58l12 30l6 32l8 24h16l8 -24v-96l-8 -24l-16 -16l-28 -36l-44 -20 l-156 4l-28 4l-72 24l-24 14l-16 10l-24 8h-32l-24 -8l-48 -48l-46 -22l-18 -10l-24 -8h-32l-24 8z" />
<glyph unicode="&#xa8;" horiz-adv-x="414" d="M66 672l6 20l18 4l16 8l12 12h10l24 -24l6 -20l-6 -18l-24 -26l-16 -6l-18 6l-12 14l-10 12zM226 676l6 20l16 4h46l18 -4l6 -20l-6 -18l-24 -24l-16 -8l-18 8l-12 12l-10 12z" />
<glyph unicode="&#xa9;" horiz-adv-x="1706" d="M26 36v60v14l4 28l2 4l22 18l16 12l8 2h22l8 -2h6l6 -4l12 -4l10 -2l16 -16l2 -8l8 -54l-2 -8l-12 -36l-4 -2l-32 -26l-12 -8l-8 -2h-28l-6 2l-16 8l-20 18zM32 60l4 -8v-12l4 -6l8 -12l20 -8l10 -2h6l30 10l30 18l2 10l6 26l4 8v6l4 10l-2 18l-8 20l-6 8l-26 16l-22 2 l-22 -6l-10 -2l-16 -10l-2 -8l-8 -30l-2 -8v-12v-16zM62 90l2 16l2 4l6 10l8 8l8 4l4 4h8h4l2 -4l-2 -4l-4 -2h-6l-4 -2l-6 -4l-4 -6l-2 -8l-4 -6v-18l2 -6l6 -12l10 -10h4h10l2 -2l2 -4l-2 -2l-2 -2l-8 -2l-4 2l-6 4l-6 2l-8 10l-10 26z" />
<glyph unicode="&#xac;" horiz-adv-x="960" d="M64 808v16l32 32l44 22l18 4l82 6l80 4l24 4l232 24l22 2l98 6l60 -8l30 -4l26 -4l10 -6l16 -56l10 -26l4 -30l10 -184l2 -26l-14 -26l-20 2l-30 24l-8 24l-8 60l-8 24l-8 20l-6 28l-2 92l-8 24l-24 8h-32l-24 -8l-16 -16l-24 -8l-104 -24h-16l-72 -8l-298 -28l-22 -4 l-24 8z" />
<glyph unicode="&#xad;" d="M64 512l8 24l24 8h32l24 8l16 16l24 8h64l24 8l16 16l24 8h128l24 -8v-16l-16 -16l-16 -16l-24 -8h-96l-24 -8l-16 -16l-24 -8h-64l-24 -8l-16 -16l-24 -8h-32l-24 8z" />
<glyph unicode="&#xae;" horiz-adv-x="1706" d="M38 16v68v16l6 30l4 4l22 20l18 14l10 4h24l8 -4h8l8 -4l12 -4l12 -4l18 -18l2 -8l8 -62v-8l-14 -38l-4 -4l-36 -28l-14 -10l-10 -2h-32l-6 2l-16 10l-24 18zM48 44l2 -10l2 -12l4 -8l10 -14l20 -10h12h8l32 10l32 22l4 8l6 30l6 8v8l4 10l-2 22l-10 22l-8 10l-28 16 l-24 2l-24 -6l-12 -2l-16 -10l-4 -10l-8 -34l-2 -10l-2 -12v-18zM90 104v10l2 8h2h30h4l6 -4v-6v-4v-4l-10 -10l-4 -4h-4l28 -28l4 -6l4 -8l2 -4l-2 -4h-4l-16 22l-14 14l-6 4l-6 2h-2v-4l2 -24l2 -8v-4l2 -4l-2 -2l-4 -2l-2 2l-2 2l-2 4v12l-2 6v4l-4 16v4v6zM100 104l2 -6 l2 -2h10l4 4l6 4v8v2l-4 2h-16l-2 -2l-2 -6v-4z" />
<glyph unicode="&#xb0;" horiz-adv-x="1706" />
<glyph unicode="&#xb1;" horiz-adv-x="736" d="M64 800v32l8 24l24 8h224l24 8l8 24l-6 62l-2 26l-6 18l-4 24v32l8 24l24 8l24 -8l12 -38l6 -28l4 -30l4 -90l8 -24l24 -8h128l24 -8l32 -32l8 -24l-8 -24l-24 -8l-56 -8h-22l-56 -8l-24 -8l-2 -40v-160l-8 -24l-24 -8l-24 8l-8 24l-4 92l-4 28l-2 64l-26 16l-24 8l-56 8 l-44 8h-128l-24 8zM96 256l8 24l52 12h42l26 -4h416l24 -8l8 -24l-8 -24l-16 -16l-16 -16l-24 -8h-352l-24 8l-20 8l-24 8l-60 8l-24 8z" />
<glyph unicode="&#xb4;" horiz-adv-x="332" d="M64 924v38l4 16l16 24l8 14l28 48l8 12l20 20h10l18 -20v-10l-14 -24l-4 -16l-12 -24l-8 -16l-34 -42l-6 -16l-20 -20h-10z" />
<glyph unicode="&#xb8;" horiz-adv-x="322" d="M106 -74l12 14h12l8 -14l14 -8l22 2l32 16l2 14l-14 6l-26 6l-16 10l-14 28l-6 16l16 16l16 10l52 -16l-20 -2l-4 -14l16 -8l26 -6l14 -6l14 -28l6 -18l-10 -26l-12 -10l-64 -40l-18 -2l-26 6l-14 8l-18 30v16z" />
<glyph unicode="&#xba;" horiz-adv-x="344" d="M45 468l5 18l5 10l9 13l46 50l10 4l10 2l13 -3l30 -9l8 -7l7 -12l5 -11v-33l-2 -8l-4 -9l-3 -9l-3 -8l-10 -14l-18 -18l-6 -4l-6 -3l-39 -2l-9 1l-13 3l-22 12l-9 10l-2 9zM68 457l4 -10l14 -11l10 -3h28l12 5l9 9l8 11l6 8l6 14l4 23l-2 10v12l-4 9l-6 8l-8 3h-7l-12 -2 l-16 -9l-12 -9l-7 -10l-8 -14l-6 -9l-7 -16l-4 -10z" />
<glyph unicode="&#xbf;" horiz-adv-x="700" d="M64 72l8 26l8 24l10 22l18 26l70 64l30 18l80 26l28 10l26 8l10 28l-12 166l-8 36l-8 22l-8 28l-6 70l-4 28v54l10 28l8 26h18l36 -36l10 -26l32 -210l4 -42v-216l-10 -28l-26 -8h-72l-28 -10l-46 -22l-26 -14l-30 -38l-14 -24l-10 -28l-4 -24v-18l14 -20l36 -18l62 -10 h36h54l30 2l34 8l22 10l72 72l14 26l8 26l8 22l12 26l14 22l22 14l26 -10l10 -26l-2 -30l-14 -24l-12 -20l-10 -28l-10 -20l-16 -24l-14 -26l-18 -18l-26 -20l-60 -36l-26 -8h-144l-28 8l-26 4l-26 10l-28 14l-28 14l-72 66zM208 972v72l8 26l28 10h36l26 -10l36 -36v-18 l-12 -26l-8 -26l-16 -20l-26 -8h-36l-28 8z" />
<glyph unicode="&#xc0;" horiz-adv-x="704" d="M64 344l4 60l24 8h32l24 8l18 22l22 78l28 128l8 24l88 320l6 26l20 50l8 24l32 32h16l20 -22l12 -42l8 -24l30 -116l8 -24l64 -272l20 -88l26 -138l42 -18l8 -24l-8 -24l-26 -12v-16l24 -170v-32l2 -14l-16 -16l-16 -16h-16l-32 14l-8 42v32l-8 24l-32 148l-24 8h-160 l-80 6l-48 -218l-8 -24l-32 -32l-30 8l-8 24l36 218l-8 24zM244 420l4 -18l202 -20l24 8l8 24l-4 10l-10 50l-60 390l-8 24l-24 8l-24 -8l-8 -24l-68 -264l-26 -132zM312 1390l4 14l14 6l12 -6l14 -14l22 -40l34 -56l8 -26l4 8l10 -32l-4 -14l-10 -8l-8 -10h-8l-18 18l-8 28 l-44 64l-4 14v18l-4 14l-10 10z" />
<glyph unicode="&#xc1;" horiz-adv-x="704" d="M64 344l4 60l24 8h32l24 8l18 22l22 78l28 128l8 24l88 320l6 26l20 50l8 24l32 32h16l20 -22l12 -42l8 -24l30 -116l8 -24l64 -272l20 -88l26 -138l42 -18l8 -24l-8 -24l-26 -12v-16l24 -170v-32l2 -14l-16 -16l-16 -16h-16l-32 14l-8 42v32l-8 24l-32 148l-24 8h-160 l-80 6l-48 -218l-8 -24l-32 -32l-30 8l-8 24l36 218l-8 24zM244 420l4 -18l202 -20l24 8l8 24l-4 10l-10 50l-60 390l-8 24l-24 8l-24 -8l-8 -24l-68 -264l-26 -132zM313 1219v27l3 12l12 17l6 10l21 34l5 9l15 14h8l13 -14v-7l-10 -18l-3 -11l-9 -17l-6 -12l-25 -30l-5 -11 l-14 -14h-8z" />
<glyph unicode="&#xc2;" horiz-adv-x="704" d="M64 344l4 60l24 8h32l24 8l18 22l22 78l28 128l8 24l88 320l6 26l20 50l8 24l32 32h16l20 -22l12 -42l8 -24l30 -116l8 -24l64 -272l20 -88l26 -138l42 -18l8 -24l-8 -24l-26 -12v-16l24 -170v-32l2 -14l-16 -16l-16 -16h-16l-32 14l-8 42v32l-8 24l-32 148l-24 8h-160 l-80 6l-48 -218l-8 -24l-32 -32l-30 8l-8 24l36 218l-8 24zM244 420l4 -18l202 -20l24 8l8 24l-4 10l-10 50l-60 390l-8 24l-24 8l-24 -8l-8 -24l-68 -264l-26 -132zM296 1232v24l18 30l12 38h12l6 -20v-24l-6 -18l-10 -20l-14 -28h-12zM344 1354v24l6 18l18 6l18 -6l12 -36 l84 -86l6 -18l-6 -18l-18 -6l-18 6l-12 36l-48 50l-36 12z" />
<glyph unicode="&#xc3;" horiz-adv-x="704" d="M64 344l4 60l24 8h32l24 8l18 22l22 78l28 128l8 24l88 320l6 26l20 50l8 24l32 32h16l20 -22l12 -42l8 -24l30 -116l8 -24l64 -272l20 -88l26 -138l42 -18l8 -24l-8 -24l-26 -12v-16l24 -170v-32l2 -14l-16 -16l-16 -16h-16l-32 14l-8 42v32l-8 24l-32 148l-24 8h-160 l-80 6l-48 -218l-8 -24l-32 -32l-30 8l-8 24l36 218l-8 24zM244 420l4 -18l202 -20l24 8l8 24l-4 10l-10 50l-60 390l-8 24l-24 8l-24 -8l-8 -24l-68 -264l-26 -132zM279 1247v31l4 12l10 18l23 21l16 8l14 2l11 -2l50 -51l18 -27l9 -14l11 -12l17 -2l20 14l3 25l-2 42 l-1 16l1 9l10 9h9l5 -10l6 -92l-5 -25l-8 -8l-25 -23l-13 -4l-12 4l-45 49l-19 27l-35 37l-19 5l-13 -8l-15 -31l-1 -17v-17l-20 3z" />
<glyph unicode="&#xc4;" horiz-adv-x="704" d="M64 344l4 60l24 8h32l24 8l18 22l22 78l28 128l8 24l88 320l6 26l20 50l8 24l32 32h16l20 -22l12 -42l8 -24l30 -116l8 -24l64 -272l20 -88l26 -138l42 -18l8 -24l-8 -24l-26 -12v-16l24 -170v-32l2 -14l-16 -16l-16 -16h-16l-32 14l-8 42v32l-8 24l-32 148l-24 8h-160 l-80 6l-48 -218l-8 -24l-32 -32l-30 8l-8 24l36 218l-8 24zM244 420l4 -18l202 -20l24 8l8 24l-4 10l-10 50l-60 390l-8 24l-24 8l-24 -8l-8 -24l-68 -264l-26 -132zM256 1240l6 20l18 4l16 8l12 12h10l24 -24l6 -20l-6 -18l-24 -26l-16 -6l-18 6l-12 14l-10 12zM416 1244 l6 20l16 4h46l18 -4l6 -20l-6 -18l-24 -24l-16 -8l-18 8l-12 12l-10 12z" />
<glyph unicode="&#xc5;" horiz-adv-x="704" d="M64 344l4 60l24 8h32l24 8l18 22l22 78l28 128l8 24l88 320l6 26l20 50l8 24l32 32h16l20 -22l12 -42l8 -24l30 -116l8 -24l64 -272l20 -88l26 -138l42 -18l8 -24l-8 -24l-26 -12v-16l24 -170v-32l2 -14l-16 -16l-16 -16h-16l-32 14l-8 42v32l-8 24l-32 148l-24 8h-160 l-80 6l-48 -218l-8 -24l-32 -32l-30 8l-8 24l36 218l-8 24zM244 420l4 -18l202 -20l24 8l8 24l-4 10l-10 50l-60 390l-8 24l-24 8l-24 -8l-8 -24l-68 -264l-26 -132zM321 1220l5 18l5 10l9 13l46 50l10 4l10 2l13 -3l30 -9l8 -7l7 -12l5 -11v-33l-2 -8l-4 -9l-3 -9l-3 -8 l-10 -14l-18 -18l-6 -4l-6 -3l-39 -2l-9 1l-13 3l-22 12l-9 10l-2 9zM344 1209l4 -10l14 -11l10 -3h28l12 5l9 9l8 11l6 8l6 14l4 23l-2 10v12l-4 9l-6 8l-8 3h-7l-12 -2l-16 -9l-12 -9l-7 -10l-8 -14l-6 -9l-7 -16l-4 -10z" />
<glyph unicode="&#xc6;" horiz-adv-x="1122" d="M64 344l4 60l24 8h32l24 8l18 22l22 78l28 128l8 24l88 320l6 26l20 50l8 24l32 32h16l20 -22l12 -42l8 -24l30 -116l8 -24l64 -272l20 -88l26 -138l42 -18l8 -24l-8 -24l-26 -12v-16l24 -170v-32l2 -14l-16 -16l-16 -16h-16l-32 14l-8 42v32l-8 24l-32 148l-24 8h-160 l-80 6l-48 -218l-8 -24l-32 -32l-30 8l-8 24l36 218l-8 24zM244 420l4 -18l202 -20l24 8l8 24l-4 10l-10 50l-60 390l-8 24l-24 8l-24 -8l-8 -24l-68 -264l-26 -132zM446 610l8 24l24 8l40 -2l24 8l8 24v300l-8 24l-16 16l-8 36l8 24l16 16l106 -8l64 16l24 8h128l24 -8 l8 -24l-8 -24l-24 -8h-32l-24 -8l-84 -16l-46 -6l-24 -8l-10 -18l-8 -24l4 -252l8 -24l32 -32h16h48l100 -4l44 4l64 -16l8 -24l-8 -24l-24 -8l-56 -8h-32l-102 2l-46 -2l-24 -8l-10 -18l4 -134l10 -56v-164l8 -24l26 -24l216 12l38 2l40 26h16l8 -24l-8 -24l-10 -30 l-54 -34h-48h-48h-48l-74 -6l-30 -2l-64 2l-66 -2l-24 18v16v40l8 24v356l-8 24l-16 28l-24 8h-32l-24 8z" />
<glyph unicode="&#xc7;" horiz-adv-x="640" d="M52 526l8 116l2 32l18 76l26 72l34 58l90 102l58 46l38 18l50 12l32 2l40 -4l24 -8v-16l-32 -32l-24 -8l-24 -6l-24 -8l-24 -10l-88 -88l-42 -60l-28 -66l-8 -24l-20 -106l4 -40l26 -254l34 -74l22 -30l48 -32l52 -24l30 -8l56 -12l48 -6l34 -16l24 -8l32 -32v-16 l-16 -16l-16 -16l-24 -8l-94 2l-26 6l-40 12l-42 16l-52 18l-92 70l-54 70l-24 68l-12 52l-6 46l-4 30zM250 -46l12 14h12l8 -14l14 -8l22 2l32 16l2 14l-14 6l-26 6l-16 10l-14 28l-6 16l16 16l16 10l52 -16l-20 -2l-4 -14l16 -8l26 -6l14 -6l14 -28l6 -18l-10 -26l-12 -10 l-64 -40l-18 -2l-26 6l-14 8l-18 30v16z" />
<glyph unicode="&#xc8;" horiz-adv-x="672" d="M30 638l8 24l24 8l40 -2l24 8l8 24v300l-8 24l-16 16l-8 36l8 24l16 16l106 -8l64 16l24 8h128l24 -8l8 -24l-8 -24l-24 -8h-32l-24 -8l-84 -16l-46 -6l-24 -8l-10 -18l-8 -24l4 -252l8 -24l32 -32h16h48l100 -4l44 4l64 -16l8 -24l-8 -24l-24 -8l-56 -8h-32l-102 2 l-46 -2l-24 -8l-10 -18l4 -134l10 -56v-164l8 -24l26 -24l216 12l38 2l40 26h16l8 -24l-8 -24l-10 -30l-54 -34h-48h-48h-48l-74 -6l-30 -2l-64 2l-66 -2l-24 18v16v40l8 24v356l-8 24l-16 28l-24 8h-32l-24 8zM214 1285l2 7l8 4l6 -4l8 -7l12 -21l18 -30l4 -14l2 5l6 -17 l-3 -8l-5 -4l-4 -5h-4l-10 9l-4 15l-24 34l-2 7v10l-2 7l-6 6z" />
<glyph unicode="&#xc9;" horiz-adv-x="672" d="M30 638l8 24l24 8l40 -2l24 8l8 24v300l-8 24l-16 16l-8 36l8 24l16 16l106 -8l64 16l24 8h128l24 -8l8 -24l-8 -24l-24 -8h-32l-24 -8l-84 -16l-46 -6l-24 -8l-10 -18l-8 -24l4 -252l8 -24l32 -32h16h48l100 -4l44 4l64 -16l8 -24l-8 -24l-24 -8l-56 -8h-32l-102 2 l-46 -2l-24 -8l-10 -18l4 -134l10 -56v-164l8 -24l26 -24l216 12l38 2l40 26h16l8 -24l-8 -24l-10 -30l-54 -34h-48h-48h-48l-74 -6l-30 -2l-64 2l-66 -2l-24 18v16v40l8 24v356l-8 24l-16 28l-24 8h-32l-24 8zM258 1186v20l2 8l11 13l5 8l18 25l5 7l13 10h7l11 -10v-6 l-9 -12l-2 -9l-8 -13l-5 -8l-22 -23l-4 -8l-13 -11h-7z" />
<glyph unicode="&#xca;" horiz-adv-x="672" d="M30 638l8 24l24 8l40 -2l24 8l8 24v300l-8 24l-16 16l-8 36l8 24l16 16l106 -8l64 16l24 8h128l24 -8l8 -24l-8 -24l-24 -8h-32l-24 -8l-84 -16l-46 -6l-24 -8l-10 -18l-8 -24l4 -252l8 -24l32 -32h16h48l100 -4l44 4l64 -16l8 -24l-8 -24l-24 -8l-56 -8h-32l-102 2 l-46 -2l-24 -8l-10 -18l4 -134l10 -56v-164l8 -24l26 -24l216 12l38 2l40 26h16l8 -24l-8 -24l-10 -30l-54 -34h-48h-48h-48l-74 -6l-30 -2l-64 2l-66 -2l-24 18v16v40l8 24v356l-8 24l-16 28l-24 8h-32l-24 8zM200 1230v24l18 30l12 38h12l6 -20v-24l-6 -18l-10 -20 l-14 -28h-12zM248 1352v24l6 18l18 6l18 -6l12 -36l84 -86l6 -18l-6 -18l-18 -6l-18 6l-12 36l-48 50l-36 12z" />
<glyph unicode="&#xcb;" horiz-adv-x="672" d="M30 638l8 24l24 8l40 -2l24 8l8 24v300l-8 24l-16 16l-8 36l8 24l16 16l106 -8l64 16l24 8h128l24 -8l8 -24l-8 -24l-24 -8h-32l-24 -8l-84 -16l-46 -6l-24 -8l-10 -18l-8 -24l4 -252l8 -24l32 -32h16h48l100 -4l44 4l64 -16l8 -24l-8 -24l-24 -8l-56 -8h-32l-102 2 l-46 -2l-24 -8l-10 -18l4 -134l10 -56v-164l8 -24l26 -24l216 12l38 2l40 26h16l8 -24l-8 -24l-10 -30l-54 -34h-48h-48h-48l-74 -6l-30 -2l-64 2l-66 -2l-24 18v16v40l8 24v356l-8 24l-16 28l-24 8h-32l-24 8zM152 1222l6 20l18 4l16 8l12 12h10l24 -24l6 -20l-6 -18 l-24 -26l-16 -6l-18 6l-12 14l-10 12zM312 1226l6 20l16 4h46l18 -4l6 -20l-6 -18l-24 -24l-16 -8l-18 8l-12 12l-10 12z" />
<glyph unicode="&#xcc;" horiz-adv-x="288" d="M48 1298l4 14l14 6l12 -6l14 -14l22 -40l34 -56l8 -26l4 8l10 -32l-4 -14l-10 -8l-8 -10h-8l-18 18l-8 28l-44 64l-4 14v18l-4 14l-10 10zM64 800v256l8 24h16l32 -32l8 -24l24 -264l12 -254l14 -90l8 -24l6 -92l8 -24l16 -60l8 -24l-8 -24l-24 -8h-32l-24 8l-8 24 l-12 100l-12 68l-8 24l-24 290l2 52l-8 38z" />
<glyph unicode="&#xcd;" horiz-adv-x="288" d="M35 1125v21l3 9l8 14l5 7l15 27l5 7l11 11h5l10 -11v-6l-7 -13l-3 -9l-6 -13l-5 -9l-18 -24l-4 -8l-11 -12h-5zM64 800v256l8 24h16l32 -32l8 -24l24 -264l12 -254l14 -90l8 -24l6 -92l8 -24l16 -60l8 -24l-8 -24l-24 -8h-32l-24 8l-8 24l-12 100l-12 68l-8 24l-24 290 l2 52l-8 38z" />
<glyph unicode="&#xce;" horiz-adv-x="288" d="M14 1088v24l18 30l12 38h12l6 -20v-24l-6 -18l-10 -20l-14 -28h-12zM62 1210v24l6 18l18 6l18 -6l12 -36l84 -86l6 -18l-6 -18l-18 -6l-18 6l-12 36l-48 50l-36 12zM64 800v256l8 24h16l32 -32l8 -24l24 -264l12 -254l14 -90l8 -24l6 -92l8 -24l16 -60l8 -24l-8 -24 l-24 -8h-32l-24 8l-8 24l-12 100l-12 68l-8 24l-24 290l2 52l-8 38z" />
<glyph unicode="&#xcf;" horiz-adv-x="288" d="M3 1155l4 18l13 4l12 7l9 11h7l18 -22l5 -18l-5 -17l-18 -23l-11 -6l-14 6l-8 12l-8 11zM64 800v256l8 24h16l32 -32l8 -24l24 -264l12 -254l14 -90l8 -24l6 -92l8 -24l16 -60l8 -24l-8 -24l-24 -8h-32l-24 8l-8 24l-12 100l-12 68l-8 24l-24 290l2 52l-8 38zM121 1158 l4 19l12 3h34l13 -3l5 -19l-5 -16l-17 -22l-12 -7l-14 7l-8 11l-8 11z" />
<glyph unicode="&#xd0;" horiz-adv-x="704" d="M-4 578l8 24l24 8h32l24 8l16 16l24 8h64l24 8l16 16l24 8h128l24 -8v-16l-16 -16l-16 -16l-24 -8h-96l-24 -8l-16 -16l-24 -8h-64l-24 -8l-16 -16l-24 -8h-32l-24 8zM64 1064v16l16 20h16l32 -4l24 -8l170 12l26 -4l16 -4l38 -4l32 -12l24 -8l38 -14l38 -22l20 -10 l44 -36l26 -34l16 -44l4 -98l-10 -78l-10 -84l-26 -104l-20 -58l-22 -60l-36 -80l-48 -80l-72 -70l-126 -84l-58 -16h-32l-50 4l-20 18l-18 110v384v96v256v36l-16 48zM168 964l12 -656l2 -34l2 -50l8 -24l42 -4l72 34l24 18l62 70l50 80l44 94l44 112l16 62l14 104l-6 122 l-8 24l-32 36l-54 34l-62 16l-50 -2l-70 -4l-26 -2l-62 -12l-12 -8z" />
<glyph unicode="&#xd1;" horiz-adv-x="768" d="M64 828v36l2 194l16 4h16l24 -12l14 -18l48 -48l96 -128l96 -128l64 -96l64 -96l24 -40l56 -72h16l-2 24l-8 24l-6 16l-6 30l-2 58l-4 294l-8 24l-12 42l-8 24v32l8 24l24 8l40 -4l30 -26l8 -24l2 -244l4 -54l8 -62l4 -42l24 -288l8 -24v-32l-8 -24l-22 -8l-30 6l-38 48 l-28 42l-28 56l-86 124l-64 96l-96 128l-82 118l-32 32l-24 -12l-8 -24l12 -220l2 -64l12 -50v-16l4 -40l4 -32v-224l-8 -24l-24 -8l-24 8l-8 24l-12 80l-8 24l-4 64l-8 24l-22 376l-4 34zM214 1116v40l4 16l12 22l28 28l20 10l16 2l14 -2l60 -66l22 -34l10 -18l14 -16 l20 -2l24 18l4 32l-2 54l-2 20l2 12l12 12h10l6 -14l8 -118l-6 -32l-10 -10l-30 -30l-16 -4l-14 4l-54 64l-24 34l-42 48l-22 6l-16 -10l-18 -40l-2 -22v-22l-24 4z" />
<glyph unicode="&#xd2;" d="M2 326v332v74l20 144l14 30l96 94l70 70l36 12h94l36 -12l20 -6l34 -12l52 -18l40 -26l74 -84l14 -36l28 -306l-6 -32l-54 -190l-14 -22l-142 -140l-56 -36l-38 -12h-118l-32 12l-64 36l-92 92zM82 462l8 -42l6 -50l12 -40l34 -64l62 -40l42 -10h24l102 50l100 104l14 38 l22 132l14 38l2 46l12 38l-6 96l-30 100l-28 46l-90 78l-74 10l-76 -24l-38 -14l-52 -50l-12 -40l-24 -158l-10 -42l-6 -66v-78zM188 1308l4 14l14 6l12 -6l14 -14l22 -40l34 -56l8 -26l4 8l10 -32l-4 -14l-10 -8l-8 -10h-8l-18 18l-8 28l-44 64l-4 14v18l-4 14l-10 10z" />
<glyph unicode="&#xd3;" d="M2 326v332v74l20 144l14 30l96 94l70 70l36 12h94l36 -12l20 -6l34 -12l52 -18l40 -26l74 -84l14 -36l28 -306l-6 -32l-54 -190l-14 -22l-142 -140l-56 -36l-38 -12h-118l-32 12l-64 36l-92 92zM82 462l8 -42l6 -50l12 -40l34 -64l62 -40l42 -10h24l102 50l100 104l14 38 l22 132l14 38l2 46l12 38l-6 96l-30 100l-28 46l-90 78l-74 10l-76 -24l-38 -14l-52 -50l-12 -40l-24 -158l-10 -42l-6 -66v-78zM216 1172v38l4 16l16 24l8 14l28 48l8 12l20 20h10l18 -20v-10l-14 -24l-4 -16l-12 -24l-8 -16l-34 -42l-6 -16l-20 -20h-10z" />
<glyph unicode="&#xd4;" d="M2 326v332v74l20 144l14 30l96 94l70 70l36 12h94l36 -12l20 -6l34 -12l52 -18l40 -26l74 -84l14 -36l28 -306l-6 -32l-54 -190l-14 -22l-142 -140l-56 -36l-38 -12h-118l-32 12l-64 36l-92 92zM82 462l8 -42l6 -50l12 -40l34 -64l62 -40l42 -10h24l102 50l100 104l14 38 l22 132l14 38l2 46l12 38l-6 96l-30 100l-28 46l-90 78l-74 10l-76 -24l-38 -14l-52 -50l-12 -40l-24 -158l-10 -42l-6 -66v-78zM180 1132v24l18 30l12 38h12l6 -20v-24l-6 -18l-10 -20l-14 -28h-12zM228 1254v24l6 18l18 6l18 -6l12 -36l84 -86l6 -18l-6 -18l-18 -6l-18 6 l-12 36l-48 50l-36 12z" />
<glyph unicode="&#xd5;" d="M2 326v332v74l20 144l14 30l96 94l70 70l36 12h94l36 -12l20 -6l34 -12l52 -18l40 -26l74 -84l14 -36l28 -306l-6 -32l-54 -190l-14 -22l-142 -140l-56 -36l-38 -12h-118l-32 12l-64 36l-92 92zM82 462l8 -42l6 -50l12 -40l34 -64l62 -40l42 -10h24l102 50l100 104l14 38 l22 132l14 38l2 46l12 38l-6 96l-30 100l-28 46l-90 78l-74 10l-76 -24l-38 -14l-52 -50l-12 -40l-24 -158l-10 -42l-6 -66v-78zM122 1178v40l4 16l12 22l28 28l20 10l16 2l14 -2l60 -66l22 -34l10 -18l14 -16l20 -2l24 18l4 32l-2 54l-2 20l2 12l12 12h10l6 -14l8 -118 l-6 -32l-10 -10l-30 -30l-16 -4l-14 4l-54 64l-24 34l-42 48l-22 6l-16 -10l-18 -40l-2 -22v-22l-24 4z" />
<glyph unicode="&#xd6;" d="M2 326v332v74l20 144l14 30l96 94l70 70l36 12h94l36 -12l20 -6l34 -12l52 -18l40 -26l74 -84l14 -36l28 -306l-6 -32l-54 -190l-14 -22l-142 -140l-56 -36l-38 -12h-118l-32 12l-64 36l-92 92zM82 462l8 -42l6 -50l12 -40l34 -64l62 -40l42 -10h24l102 50l100 104l14 38 l22 132l14 38l2 46l12 38l-6 96l-30 100l-28 46l-90 78l-74 10l-76 -24l-38 -14l-52 -50l-12 -40l-24 -158l-10 -42l-6 -66v-78zM146 1170l6 20l18 4l16 8l12 12h10l24 -24l6 -20l-6 -18l-24 -26l-16 -6l-18 6l-12 14l-10 12zM306 1174l6 20l16 4h46l18 -4l6 -20l-6 -18 l-24 -24l-16 -8l-18 8l-12 12l-10 12z" />
<glyph unicode="&#xd7;" horiz-adv-x="462" d="M6 186l12 24l14 10l24 28l28 30l12 18l58 72l12 14l-12 28l-4 18l-28 46l-36 36l-6 14l6 14l22 2h14l20 -20l46 -82l20 -30h6l58 82l2 10h24l16 -24v-10l-52 -58l-16 -24l-2 -20l18 -20l54 -66l88 -88l6 -10l-6 -18l-16 -2l-24 2l-44 58l-108 112l-10 8l-56 -54l-38 -52 l-22 -36l-14 -36l-18 -2h-26z" />
<glyph unicode="&#xd8;" d="M2 326v332v74l20 144l14 30l96 94l70 70l36 12h94l36 -12l20 -6l34 -12l52 -18l40 -26l74 -84l14 -36l28 -306l-6 -32l-54 -190l-14 -22l-142 -140l-56 -36l-38 -12h-118l-32 12l-64 36l-92 92zM82 462l8 -42l6 -50l12 -40l34 -64l62 -40l42 -10h24l102 50l100 104l14 38 l22 132l14 38l2 46l12 38l-6 96l-30 100l-28 46l-90 78l-74 10l-76 -24l-38 -14l-52 -50l-12 -40l-24 -158l-10 -42l-6 -66v-78zM106 426v20l4 14l8 10l8 28l10 10l78 198l62 140l70 170l8 28l10 10l8 28l36 38l12 6l14 -6l4 -14v-38l-4 -14l-36 -94l-16 -38l-54 -112 l-60 -142l-10 -28l-8 -10l-10 -28l-8 -10l-34 -76l-10 -28l-18 -38l-34 -38l-14 -4l-12 4z" />
<glyph unicode="&#xd9;" horiz-adv-x="660" d="M50 1082l8 24l38 24l36 -12l8 -24l8 -340v-44l2 -90l12 -100l6 -32l12 -30l8 -24l12 -42l32 -64l68 -76l56 -20l30 14l30 44l20 54l12 136l16 110l8 24l22 196v160l8 24l42 -2h32l24 -8l8 -24v-40l-16 -182l-28 -232l-8 -54l-14 -44l-14 -36l-18 -58l-18 -46l-22 -44 l-34 -40l-42 -20l-30 -8l-46 -2l-24 6l-38 12l-40 30l-32 32l-50 98l-8 24l-30 92l-14 46l-16 130l-2 48zM184 1314l4 14l14 6l12 -6l14 -14l22 -40l34 -56l8 -26l4 8l10 -32l-4 -14l-10 -8l-8 -10h-8l-18 18l-8 28l-44 64l-4 14v18l-4 14l-10 10z" />
<glyph unicode="&#xda;" horiz-adv-x="660" d="M50 1082l8 24l38 24l36 -12l8 -24l8 -340v-44l2 -90l12 -100l6 -32l12 -30l8 -24l12 -42l32 -64l68 -76l56 -20l30 14l30 44l20 54l12 136l16 110l8 24l22 196v160l8 24l42 -2h32l24 -8l8 -24v-40l-16 -182l-28 -232l-8 -54l-14 -44l-14 -36l-18 -58l-18 -46l-22 -44 l-34 -40l-42 -20l-30 -8l-46 -2l-24 6l-38 12l-40 30l-32 32l-50 98l-8 24l-30 92l-14 46l-16 130l-2 48zM359 1167v45l5 18l22 29l11 16l38 56l11 14l27 24h13l25 -24v-12l-19 -28l-6 -18l-16 -28l-11 -19l-46 -49l-8 -19l-27 -23h-14z" />
<glyph unicode="&#xdb;" horiz-adv-x="660" d="M50 1082l8 24l38 24l36 -12l8 -24l8 -340v-44l2 -90l12 -100l6 -32l12 -30l8 -24l12 -42l32 -64l68 -76l56 -20l30 14l30 44l20 54l12 136l16 110l8 24l22 196v160l8 24l42 -2h32l24 -8l8 -24v-40l-16 -182l-28 -232l-8 -54l-14 -44l-14 -36l-18 -58l-18 -46l-22 -44 l-34 -40l-42 -20l-30 -8l-46 -2l-24 6l-38 12l-40 30l-32 32l-50 98l-8 24l-30 92l-14 46l-16 130l-2 48zM248 1172v24l18 30l12 38h12l6 -20v-24l-6 -18l-10 -20l-14 -28h-12zM296 1294v24l6 18l18 6l18 -6l12 -36l84 -86l6 -18l-6 -18l-18 -6l-18 6l-12 36l-48 50l-36 12z " />
<glyph unicode="&#xdc;" horiz-adv-x="660" d="M50 1082l8 24l38 24l36 -12l8 -24l8 -340v-44l2 -90l12 -100l6 -32l12 -30l8 -24l12 -42l32 -64l68 -76l56 -20l30 14l30 44l20 54l12 136l16 110l8 24l22 196v160l8 24l42 -2h32l24 -8l8 -24v-40l-16 -182l-28 -232l-8 -54l-14 -44l-14 -36l-18 -58l-18 -46l-22 -44 l-34 -40l-42 -20l-30 -8l-46 -2l-24 6l-38 12l-40 30l-32 32l-50 98l-8 24l-30 92l-14 46l-16 130l-2 48zM204 1182l6 20l18 4l16 8l12 12h10l24 -24l6 -20l-6 -18l-24 -26l-16 -6l-18 6l-12 14l-10 12zM364 1186l6 20l16 4h46l18 -4l6 -20l-6 -18l-24 -24l-16 -8l-18 8 l-12 12l-10 12z" />
<glyph unicode="&#xdd;" horiz-adv-x="736" d="M64 1120l8 24l24 8l24 -8l54 -62l42 -66l112 -144l24 -8l24 8l32 32l58 100l80 136l18 38l32 32l44 6l24 -8l8 -24l-8 -24l-16 -16l-48 -80l-64 -96l-64 -96l-32 -64l-8 -34l-2 -30v-56l2 -32l8 -104v-48l4 -78l4 -298l-8 -24h-16l-56 8l-8 24l-6 68l-8 112l6 66v66 l-12 256l-8 24l-34 84l-34 32l-128 156l-64 96zM386 1230v38l4 16l16 24l8 14l28 48l8 12l20 20h10l18 -20v-10l-14 -24l-4 -16l-12 -24l-8 -16l-34 -42l-6 -16l-20 -20h-10z" />
<glyph unicode="&#xde;" horiz-adv-x="1706" />
<glyph unicode="&#xdf;" horiz-adv-x="694" d="M74 -2v910l18 52l24 40l22 18l68 24l32 4l20 -4l22 -6l26 -10l22 -10l70 -60l10 -22l30 -62l6 -26v-30v-36l-8 -36l-14 -28l-24 -30l-12 -18l-22 -22l-18 -14v-14l42 -18l28 -12l28 -6l44 -22l76 -58l32 -46l18 -46l6 -36v-26l-6 -26l-10 -22l-8 -24l-12 -16l-10 -24 l-10 -22l-12 -22l-12 -14l-70 -58l-26 -8l-28 -6h-34h-54l-26 6l-26 8l-36 28l-8 22v90l8 20h18l36 -30l8 -20v-30l12 -16l24 -14h70l26 8l54 50l10 22l16 38l8 22l6 26l2 38l-8 40l-8 20l-10 22l-102 74l-24 6h-72l-26 4l-40 48l-8 22l8 22l78 54l20 42l10 38l8 20l8 36 l6 28l-10 48l-10 22l-38 40l-26 8h-28l-26 -4l-26 -8l-28 -22l-16 -30v-30v-116v-734l-10 -24l-34 -28l-36 4z" />
<glyph unicode="&#xe0;" horiz-adv-x="576" d="M64 60l8 24l16 14l8 24l56 188l8 24l64 212v30l-8 22l-16 16l-8 22l8 22l48 16l40 -38l8 -22l16 -16l8 -22l56 -160l20 -38l50 -96l16 -14l8 -24l36 -106l-2 -40l-16 -14l-16 -16h-16l-8 24l-14 56l-8 22l-18 34l-20 32l-82 4l-50 2l-24 -6l-32 -32l-16 -44l-24 -68 l-8 -24l-16 -58l-32 -2l-34 16zM120 894l4 14l14 6l12 -6l14 -14l22 -40l34 -56l8 -26l4 8l10 -32l-4 -14l-10 -8l-8 -10h-8l-18 18l-8 28l-44 64l-4 14v18l-4 14l-10 10zM224 334l8 -24l24 -6h32l46 4l6 32l-28 46l-32 30h-16z" />
<glyph unicode="&#xe1;" horiz-adv-x="576" d="M64 60l8 24l16 14l8 24l56 188l8 24l64 212v30l-8 22l-16 16l-8 22l8 22l48 16l40 -38l8 -22l16 -16l8 -22l56 -160l20 -38l50 -96l16 -14l8 -24l36 -106l-2 -40l-16 -14l-16 -16h-16l-8 24l-14 56l-8 22l-18 34l-20 32l-82 4l-50 2l-24 -6l-32 -32l-16 -44l-24 -68 l-8 -24l-16 -58l-32 -2l-34 16zM184 695v21l2 9l8 14l4 7l15 27l4 7l10 11h5l9 -11v-6l-7 -13l-2 -9l-6 -13l-4 -9l-17 -24l-4 -8l-10 -12h-5zM224 334l8 -24l24 -6h32l46 4l6 32l-28 46l-32 30h-16z" />
<glyph unicode="&#xe2;" horiz-adv-x="576" d="M64 60l8 24l16 14l8 24l56 188l8 24l64 212v30l-8 22l-16 16l-8 22l8 22l48 16l40 -38l8 -22l16 -16l8 -22l56 -160l20 -38l50 -96l16 -14l8 -24l36 -106l-2 -40l-16 -14l-16 -16h-16l-8 24l-14 56l-8 22l-18 34l-20 32l-82 4l-50 2l-24 -6l-32 -32l-16 -44l-24 -68 l-8 -24l-16 -58l-32 -2l-34 16zM148 712v24l18 30l12 38h12l6 -20v-24l-6 -18l-10 -20l-14 -28h-12zM196 834v24l6 18l18 6l18 -6l12 -36l84 -86l6 -18l-6 -18l-18 -6l-18 6l-12 36l-48 50l-36 12zM224 334l8 -24l24 -6h32l46 4l6 32l-28 46l-32 30h-16z" />
<glyph unicode="&#xe3;" horiz-adv-x="576" d="M64 60l8 24l16 14l8 24l56 188l8 24l64 212v30l-8 22l-16 16l-8 22l8 22l48 16l40 -38l8 -22l16 -16l8 -22l56 -160l20 -38l50 -96l16 -14l8 -24l36 -106l-2 -40l-16 -14l-16 -16h-16l-8 24l-14 56l-8 22l-18 34l-20 32l-82 4l-50 2l-24 -6l-32 -32l-16 -44l-24 -68 l-8 -24l-16 -58l-32 -2l-34 16zM139 745v31l3 12l8 17l20 21l14 7l12 2l10 -2l42 -50l16 -26l7 -13l10 -12l14 -2l17 14l3 24l-2 41l-1 15l1 9l9 10h7l4 -11l6 -90l-4 -24l-7 -8l-22 -22l-11 -3l-10 3l-38 48l-17 26l-30 36l-16 5l-11 -8l-13 -30l-1 -17v-16l-17 3zM224 334 l8 -24l24 -6h32l46 4l6 32l-28 46l-32 30h-16z" />
<glyph unicode="&#xe4;" horiz-adv-x="576" d="M64 60l8 24l16 14l8 24l56 188l8 24l64 212v30l-8 22l-16 16l-8 22l8 22l48 16l40 -38l8 -22l16 -16l8 -22l56 -160l20 -38l50 -96l16 -14l8 -24l36 -106l-2 -40l-16 -14l-16 -16h-16l-8 24l-14 56l-8 22l-18 34l-20 32l-82 4l-50 2l-24 -6l-32 -32l-16 -44l-24 -68 l-8 -24l-16 -58l-32 -2l-34 16zM140 742l6 20l18 4l16 8l12 12h10l24 -24l6 -20l-6 -18l-24 -26l-16 -6l-18 6l-12 14l-10 12zM224 334l8 -24l24 -6h32l46 4l6 32l-28 46l-32 30h-16zM300 746l6 20l16 4h46l18 -4l6 -20l-6 -18l-24 -24l-16 -8l-18 8l-12 12l-10 12z" />
<glyph unicode="&#xe5;" horiz-adv-x="576" d="M64 60l8 24l16 14l8 24l56 188l8 24l64 212v30l-8 22l-16 16l-8 22l8 22l48 16l40 -38l8 -22l16 -16l8 -22l56 -160l20 -38l50 -96l16 -14l8 -24l36 -106l-2 -40l-16 -14l-16 -16h-16l-8 24l-14 56l-8 22l-18 34l-20 32l-82 4l-50 2l-24 -6l-32 -32l-16 -44l-24 -68 l-8 -24l-16 -58l-32 -2l-34 16zM224 334l8 -24l24 -6h32l46 4l6 32l-28 46l-32 30h-16z" />
<glyph unicode="&#xe6;" horiz-adv-x="846" d="M64 60l8 24l16 14l8 24l56 188l8 24l64 212v30l-8 22l-16 16l-8 22l8 22l48 16l40 -38l8 -22l16 -16l8 -22l56 -160l20 -38l50 -96l16 -14l8 -24l36 -106l-2 -40l-16 -14l-16 -16h-16l-8 24l-14 56l-8 22l-18 34l-20 32l-82 4l-50 2l-24 -6l-32 -32l-16 -44l-24 -68 l-8 -24l-16 -58l-32 -2l-34 16zM224 334l8 -24l24 -6h32l46 4l6 32l-28 46l-32 30h-16zM352 416l8 22l40 10v34l-8 44v44l4 64l28 10l24 8h64l24 -8l104 -22l24 -6l8 -24l-8 -22h-16l-80 16l-24 6h-32l-24 -6l-8 -22v-90l8 -22l24 -6h192l24 -8l8 -22l-8 -22l-24 -8h-64 l-24 -8l-98 -4l-24 -8l-4 -38l-2 -82l24 -126l8 -22l24 -8h128l24 -6v-16l-12 -22h-32l-24 -6l-52 -8l-146 -4l-24 8l-14 32v16l48 14l-2 32l-14 56l-8 142l-4 32l-52 14z" />
<glyph unicode="&#xe7;" horiz-adv-x="416" d="M34 340l12 108l10 34l30 66l62 54l58 34l24 10l54 8l24 -8l8 -20l-8 -22l-24 -8l-44 -12l-24 -8l-42 -26l-26 -40l-22 -62l-8 -36l-6 -120l10 -38l44 -86l64 -58l28 -12h58l26 -10l6 -14l-8 -22l-16 -14l-50 -6l-36 10l-32 16l-40 22l-54 72l-70 160zM152 -18l6 12h6 l4 -12l8 -6l12 2l18 12v10l-8 6l-14 4l-8 8l-8 22l-2 12l8 12l8 8l28 -12l-10 -2l-2 -10l8 -6l14 -6l8 -4l6 -22l4 -14l-6 -20l-6 -8l-34 -30l-10 -2l-14 4l-6 6l-10 24v12z" />
<glyph unicode="&#xe8;" horiz-adv-x="512" d="M64 416l8 22l40 10v34l-8 44v44l4 64l28 10l24 8h64l24 -8l104 -22l24 -6l8 -24l-8 -22h-16l-80 16l-24 6h-32l-24 -6l-8 -22v-90l8 -22l24 -6h192l24 -8l8 -22l-8 -22l-24 -8h-64l-24 -8l-98 -4l-24 -8l-4 -38l-2 -82l24 -126l8 -22l24 -8h128l24 -6v-16l-12 -22h-32 l-24 -6l-52 -8l-146 -4l-24 8l-14 32v16l48 14l-2 32l-14 56l-8 142l-4 32l-52 14zM153 768l2 8l8 3l7 -3l8 -8l12 -23l20 -32l4 -14l3 4l5 -18l-2 -8l-6 -5l-4 -5h-5l-10 10l-5 16l-25 36l-2 8v11l-2 7l-6 6z" />
<glyph unicode="&#xe9;" horiz-adv-x="512" d="M72 548v54l18 18l10 28v144l8 26l36 36h126l24 -4l66 4h18l36 -36l10 -26l-10 -28l-26 -8h-36l-28 8l-18 18h-54l-36 -36l-8 -26v-72l8 -28l28 -8h216l26 -10l10 -26l-10 -28l-26 -8l-70 -10h-30l-142 -8v-56l8 -64l4 -18v-24v-144l8 -28l42 -8h72l26 8l30 4h18l24 -22 v-18l-18 -22l-28 -10l-26 -4l-26 -8h-180l-28 8l-36 36v18l28 154v144l-10 26zM210 918v18l18 18l10 28l8 26l72 72l28 10l26 -10v-18l-18 -18l-8 -26l-10 -28l-72 -72l-26 -8z" />
<glyph unicode="&#xea;" horiz-adv-x="512" d="M64 416l8 22l40 10v34l-8 44v44l4 64l28 10l24 8h64l24 -8l104 -22l24 -6l8 -24l-8 -22h-16l-80 16l-24 6h-32l-24 -6l-8 -22v-90l8 -22l24 -6h192l24 -8l8 -22l-8 -22l-24 -8h-64l-24 -8l-98 -4l-24 -8l-4 -38l-2 -82l24 -126l8 -22l24 -8h128l24 -6v-16l-12 -22h-32 l-24 -6l-52 -8l-146 -4l-24 8l-14 32v16l48 14l-2 32l-14 56l-8 142l-4 32l-52 14zM124 694v24l18 30l12 38h12l6 -20v-24l-6 -18l-10 -20l-14 -28h-12zM172 816v24l6 18l18 6l18 -6l12 -36l84 -86l6 -18l-6 -18l-18 -6l-18 6l-12 36l-48 50l-36 12z" />
<glyph unicode="&#xeb;" horiz-adv-x="512" d="M64 416l8 22l40 10v34l-8 44v44l4 64l28 10l24 8h64l24 -8l104 -22l24 -6l8 -24l-8 -22h-16l-80 16l-24 6h-32l-24 -6l-8 -22v-90l8 -22l24 -6h192l24 -8l8 -22l-8 -22l-24 -8h-64l-24 -8l-98 -4l-24 -8l-4 -38l-2 -82l24 -126l8 -22l24 -8h128l24 -6v-16l-12 -22h-32 l-24 -6l-52 -8l-146 -4l-24 8l-14 32v16l48 14l-2 32l-14 56l-8 142l-4 32l-52 14zM116 726l6 20l18 4l16 8l12 12h10l24 -24l6 -20l-6 -18l-24 -26l-16 -6l-18 6l-12 14l-10 12zM276 730l6 20l16 4h46l18 -4l6 -20l-6 -18l-24 -24l-16 -8l-18 8l-12 12l-10 12z" />
<glyph unicode="&#xec;" horiz-adv-x="224" d="M50 876l4 14l14 6l12 -6l14 -14l22 -40l34 -56l8 -26l4 8l10 -32l-4 -14l-10 -8l-8 -10h-8l-18 18l-8 28l-44 64l-4 14v18l-4 14l-10 10zM72 616v16l32 32h16l32 -32l8 -24v-512l-8 -24l-24 -8h-32l-20 22v160l12 114v16l8 72v32v96l-8 24z" />
<glyph unicode="&#xed;" horiz-adv-x="224" d="M66 698v38l4 16l16 24l8 14l28 48l8 12l20 20h10l18 -20v-10l-14 -24l-4 -16l-12 -24l-8 -16l-34 -42l-6 -16l-20 -20h-10zM72 616v16l32 32h16l32 -32l8 -24v-512l-8 -24l-24 -8h-32l-20 22v160l12 114v16l8 72v32v96l-8 24z" />
<glyph unicode="&#xee;" horiz-adv-x="224" d="M49 690v17l15 21l10 27h10l6 -14v-17l-6 -13l-8 -14l-12 -19h-10zM72 616v16l32 32h16l32 -32l8 -24v-512l-8 -24l-24 -8h-32l-20 22v160l12 114v16l8 72v32v96l-8 24zM90 776v17l5 13l15 4l15 -4l10 -26l71 -60l5 -13l-5 -12l-15 -5l-15 5l-11 25l-40 35l-30 8z" />
<glyph unicode="&#xef;" horiz-adv-x="224" d="M12 718l4 18l13 3l12 7l8 11h7l18 -21l4 -18l-4 -16l-18 -22l-11 -5l-13 5l-9 12l-7 10zM72 616v16l32 32h16l32 -32l8 -24v-512l-8 -24l-24 -8h-32l-20 22v160l12 114v16l8 72v32v96l-8 24zM127 722l5 17l11 4h33l13 -4l5 -17l-5 -16l-17 -21l-12 -7l-13 7l-8 10l-7 11z " />
<glyph unicode="&#xf0;" horiz-adv-x="608" d="M76 202l12 -42l28 -42l52 -48l8 -6l54 -28l90 -12l20 2l60 14l54 36l46 58l18 50l14 76l6 36l2 38v52l-6 38l-8 50l-8 40l-8 32l-8 24l-12 36l-8 26l-16 38l-18 36l-20 34l-26 40l-48 58l-70 58l-52 28l-68 18h-66l-20 -18v-32l12 -8l88 -22l34 -16l70 -56l60 -80l32 -62 l18 -40l18 -58l12 -74l10 -136l-4 -28l-26 24l-40 20l-30 10l-88 10l-42 -4l-30 -10l-34 -22l-48 -68l-14 -38v-32zM152 720l2 6l4 4l4 2l22 28l14 20l22 22l2 4l2 2l2 4l12 4h8l14 -10l20 -18l-2 -12l-8 -14l-6 -4l-16 -16l-18 -24l-4 -4l-4 -4l-8 -10l-2 -4l-6 -6l-8 -4 h-8l-24 16l-12 12zM156 198l14 48l32 38l26 14l36 4l34 -2l26 -10l18 -12l22 -26l14 -20l6 -18l6 -34l-6 -28l-12 -24l-32 -32l-24 -8l-64 4l-40 20l-42 40l-10 16zM302 890l2 6l4 4l4 2l22 28l14 20l22 22l2 4l2 2l2 4l12 4l8 -2l14 -8l18 -22v-8l-8 -14l-6 -4l-16 -16 l-18 -24l-4 -4l-4 -4l-8 -10l-4 -4l-4 -6l-8 -4l-8 -4l-24 20l-12 12z" />
<glyph unicode="&#xf1;" horiz-adv-x="672" d="M64 520v16l32 32h16l64 -64l80 -80l96 -64l64 -32l64 -32h16l8 24l-4 26l-10 60l-8 24l-24 96l-8 24l-10 90l8 24h24l24 -32l16 -48l6 -26l18 -46l8 -24l24 -104l24 -218v-30l-12 -22l-20 -10h-16l-16 48l-62 58l-54 30l-64 40l-172 128h-16l-8 -24l2 -158l6 -26l16 -112 l-8 -24l-48 2l-16 30v44l-12 76l-4 40l-8 184v48v16zM102 706v40l4 16l12 22l28 28l20 10l16 2l14 -2l60 -66l22 -34l10 -18l14 -16l20 -2l24 18l4 32l-2 54l-2 20l2 12l12 12h10l6 -14l8 -118l-6 -32l-10 -10l-30 -30l-16 -4l-14 4l-54 64l-24 34l-42 48l-22 6l-16 -10 l-18 -40l-2 -22v-22l-24 4z" />
<glyph unicode="&#xf2;" horiz-adv-x="562" d="M50 240l16 64l16 38l26 46l136 182l30 14l32 6l36 -8l92 -36l24 -22l20 -46l14 -40v-120l-6 -28l-10 -34l-10 -32l-10 -28l-30 -50l-52 -66l-18 -16l-20 -10l-114 -8l-28 6l-40 10l-64 42l-26 38l-8 32zM120 200l12 -36l40 -42l32 -10h84l34 20l26 30l26 40l16 30l20 52 l12 82l-6 38l-2 42l-10 32l-20 30l-22 12h-22l-36 -8l-48 -34l-34 -32l-22 -36l-24 -50l-18 -34l-22 -56l-12 -38zM224 818l4 14l14 6l12 -6l14 -14l22 -40l34 -56l8 -26l4 8l10 -32l-4 -14l-10 -8l-8 -10h-8l-18 18l-8 28l-44 64l-4 14v18l-4 14l-10 10z" />
<glyph unicode="&#xf3;" horiz-adv-x="562" d="M50 240l16 64l16 38l26 46l136 182l30 14l32 6l36 -8l92 -36l24 -22l20 -46l14 -40v-120l-6 -28l-10 -34l-10 -32l-10 -28l-30 -50l-52 -66l-18 -16l-20 -10l-114 -8l-28 6l-40 10l-64 42l-26 38l-8 32zM120 200l12 -36l40 -42l32 -10h84l34 20l26 30l26 40l16 30l20 52 l12 82l-6 38l-2 42l-10 32l-20 30l-22 12h-22l-36 -8l-48 -34l-34 -32l-22 -36l-24 -50l-18 -34l-22 -56l-12 -38zM216 644v38l4 16l16 24l8 14l28 48l8 12l20 20h10l18 -20v-10l-14 -24l-4 -16l-12 -24l-8 -16l-34 -42l-6 -16l-20 -20h-10z" />
<glyph unicode="&#xf4;" horiz-adv-x="562" d="M50 240l16 64l16 38l26 46l136 182l30 14l32 6l36 -8l92 -36l24 -22l20 -46l14 -40v-120l-6 -28l-10 -34l-10 -32l-10 -28l-30 -50l-52 -66l-18 -16l-20 -10l-114 -8l-28 6l-40 10l-64 42l-26 38l-8 32zM120 200l12 -36l40 -42l32 -10h84l34 20l26 30l26 40l16 30l20 52 l12 82l-6 38l-2 42l-10 32l-20 30l-22 12h-22l-36 -8l-48 -34l-34 -32l-22 -36l-24 -50l-18 -34l-22 -56l-12 -38zM206 638v24l18 30l12 38h12l6 -20v-24l-6 -18l-10 -20l-14 -28h-12zM254 760v24l6 18l18 6l18 -6l12 -36l84 -86l6 -18l-6 -18l-18 -6l-18 6l-12 36l-48 50 l-36 12z" />
<glyph unicode="&#xf5;" horiz-adv-x="562" d="M50 240l16 64l16 38l26 46l136 182l30 14l32 6l36 -8l92 -36l24 -22l20 -46l14 -40v-120l-6 -28l-10 -34l-10 -32l-10 -28l-30 -50l-52 -66l-18 -16l-20 -10l-114 -8l-28 6l-40 10l-64 42l-26 38l-8 32zM120 200l12 -36l40 -42l32 -10h84l34 20l26 30l26 40l16 30l20 52 l12 82l-6 38l-2 42l-10 32l-20 30l-22 12h-22l-36 -8l-48 -34l-34 -32l-22 -36l-24 -50l-18 -34l-22 -56l-12 -38zM201 671v32l4 13l10 17l24 22l17 8l13 1l12 -1l51 -52l19 -27l8 -14l12 -13l17 -1l21 14l3 25l-1 43l-2 15l2 10l10 9h8l5 -11l7 -93l-5 -25l-8 -8l-26 -23 l-14 -4l-12 4l-45 50l-21 27l-36 38l-18 4l-14 -8l-15 -31l-2 -17v-18l-20 3z" />
<glyph unicode="&#xf6;" horiz-adv-x="562" d="M50 240l16 64l16 38l26 46l136 182l30 14l32 6l36 -8l92 -36l24 -22l20 -46l14 -40v-120l-6 -28l-10 -34l-10 -32l-10 -28l-30 -50l-52 -66l-18 -16l-20 -10l-114 -8l-28 6l-40 10l-64 42l-26 38l-8 32zM120 200l12 -36l40 -42l32 -10h84l34 20l26 30l26 40l16 30l20 52 l12 82l-6 38l-2 42l-10 32l-20 30l-22 12h-22l-36 -8l-48 -34l-34 -32l-22 -36l-24 -50l-18 -34l-22 -56l-12 -38zM154 672l6 20l18 4l16 8l12 12h10l24 -24l6 -20l-6 -18l-24 -26l-16 -6l-18 6l-12 14l-10 12zM314 676l6 20l16 4h46l18 -4l6 -20l-6 -18l-24 -24l-16 -8 l-18 8l-12 12l-10 12z" />
<glyph unicode="&#xf7;" horiz-adv-x="640" d="M18 354l12 18l32 6l40 6l34 6l28 8l34 6l146 20l32 2l180 4l34 -6v-14l-22 -12l-22 -12l-34 -8l-136 -4l-32 -2l-146 -18l-28 -10l-28 -10l-34 -6h-46l-32 6zM220 180l8 20l20 6h52l20 -6l26 -26l6 -20l-6 -20l-20 -6h-52l-20 6l-26 26zM220 526l8 20l12 12l14 40l26 28 h14l26 -28l6 -20v-52l-6 -20l-14 -14l-12 -14l-20 -6l-20 6l-26 28z" />
<glyph unicode="&#xf8;" horiz-adv-x="562" d="M50 240l16 64l16 38l26 46l136 182l30 14l32 6l36 -8l92 -36l24 -22l20 -46l14 -40v-120l-6 -28l-10 -34l-10 -32l-10 -28l-30 -50l-52 -66l-18 -16l-20 -10l-114 -8l-28 6l-40 10l-64 42l-26 38l-8 32zM120 -4v20l4 14l8 10l8 28l10 10l78 198l62 140l70 170l8 28l10 10 l8 28l36 38l12 6l14 -6l4 -14v-38l-4 -14l-36 -94l-16 -38l-54 -112l-60 -142l-10 -28l-8 -10l-10 -28l-8 -10l-34 -76l-10 -28l-18 -38l-34 -38l-14 -4l-12 4zM120 200l12 -36l40 -42l32 -10h84l34 20l26 30l26 40l16 30l20 52l12 82l-6 38l-2 42l-10 32l-20 30l-22 12h-22 l-36 -8l-48 -34l-34 -32l-22 -36l-24 -50l-18 -34l-22 -56l-12 -38z" />
<glyph unicode="&#xf9;" horiz-adv-x="440" d="M64 396v162l10 30l34 4l22 -4l10 -30v-80l2 -30l4 -112l4 -38l28 -146l12 -24l16 -4l56 18l8 32l18 120v28l4 196l10 30l28 10l28 -10l10 -30l-6 -240l-4 -34l-16 -94l-10 -28l-16 -44l-34 -36l-28 -10h-38l-28 10l-78 82l-8 28l-36 214zM108 804l4 14l14 6l12 -6l14 -14 l22 -40l34 -56l8 -26l4 8l10 -32l-4 -14l-10 -8l-8 -10h-8l-18 18l-8 28l-44 64l-4 14v18l-4 14l-10 10z" />
<glyph unicode="&#xfa;" horiz-adv-x="440" d="M64 396v162l10 30l34 4l22 -4l10 -30v-80l2 -30l4 -112l4 -38l28 -146l12 -24l16 -4l56 18l8 32l18 120v28l4 196l10 30l28 10l28 -10l10 -30l-6 -240l-4 -34l-16 -94l-10 -28l-16 -44l-34 -36l-28 -10h-38l-28 10l-78 82l-8 28l-36 214zM222 626v38l4 16l16 24l8 14 l28 48l8 12l20 20h10l18 -20v-10l-14 -24l-4 -16l-12 -24l-8 -16l-34 -42l-6 -16l-20 -20h-10z" />
<glyph unicode="&#xfb;" horiz-adv-x="440" d="M64 396v162l10 30l34 4l22 -4l10 -30v-80l2 -30l4 -112l4 -38l28 -146l12 -24l16 -4l56 18l8 32l18 120v28l4 196l10 30l28 10l28 -10l10 -30l-6 -240l-4 -34l-16 -94l-10 -28l-16 -44l-34 -36l-28 -10h-38l-28 10l-78 82l-8 28l-36 214zM138 646v24l18 30l12 38h12 l6 -20v-24l-6 -18l-10 -20l-14 -28h-12zM186 768v24l6 18l18 6l18 -6l12 -36l84 -86l6 -18l-6 -18l-18 -6l-18 6l-12 36l-48 50l-36 12z" />
<glyph unicode="&#xfc;" horiz-adv-x="440" d="M64 396v162l10 30l34 4l22 -4l10 -30v-80l2 -30l4 -112l4 -38l28 -146l12 -24l16 -4l56 18l8 32l18 120v28l4 196l10 30l28 10l28 -10l10 -30l-6 -240l-4 -34l-16 -94l-10 -28l-16 -44l-34 -36l-28 -10h-38l-28 10l-78 82l-8 28l-36 214zM94 672l6 20l18 4l16 8l12 12h10 l24 -24l6 -20l-6 -18l-24 -26l-16 -6l-18 6l-12 14l-10 12zM254 676l6 20l16 4h46l18 -4l6 -20l-6 -18l-24 -24l-16 -8l-18 8l-12 12l-10 12z" />
<glyph unicode="&#xfd;" horiz-adv-x="610" d="M10 552v16l24 8l24 -8l40 -24l30 -14l74 -42l64 -32h16l128 128l64 64l32 54l22 22l10 4l14 -10l18 -38l-32 -64l-176 -176l-12 -66v-16l8 -66l6 -46l10 -28l6 -24l6 -162l-8 -24h-16l-24 6l-6 30l-2 26l-6 36l-2 22l-14 90l-6 26l-4 20l-8 24l-8 56l-64 64l-88 52 l-64 32zM284 722v38l4 16l16 24l8 14l28 48l8 12l20 20h10l18 -20v-10l-14 -24l-4 -16l-12 -24l-8 -16l-34 -42l-6 -16l-20 -20h-10z" />
<glyph unicode="&#xff;" horiz-adv-x="610" d="M10 552v16l24 8l24 -8l40 -24l30 -14l74 -42l64 -32h16l128 128l64 64l32 54l22 22l10 4l14 -10l18 -38l-32 -64l-176 -176l-12 -66v-16l8 -66l6 -46l10 -28l6 -24l6 -162l-8 -24h-16l-24 6l-6 30l-2 26l-6 36l-2 22l-14 90l-6 26l-4 20l-8 24l-8 56l-64 64l-88 52 l-64 32zM182 756l6 20l18 4l16 8l12 12h10l24 -24l6 -20l-6 -18l-24 -26l-16 -6l-18 6l-12 14l-10 12zM342 760l6 20l16 4h46l18 -4l6 -20l-6 -18l-24 -24l-16 -8l-18 8l-12 12l-10 12z" />
<glyph unicode="&#x152;" horiz-adv-x="1096" d="M48 420v86l4 64l14 84l14 42l18 50l28 64l50 98l52 62l58 46l36 20l40 8l92 6l36 14l24 26l38 16l36 -16l26 -26l36 -14h338l36 -14v-28l-48 -56l-36 -16h-290l-36 -14l-14 -42v-168l14 -44l36 -14h192l38 -14l12 -42l-12 -44l-38 -12h-192l-36 -14l-14 -42l20 -158 l18 -68l22 -42l36 -14h196l36 -16l36 -4l38 -42v-28l-14 -24h-388l-36 14l-24 28h-26l-24 -28l-60 -42l-36 -12l-36 -16h-50l-36 16l-52 22l-44 32l-54 40l-42 74l-14 42zM160 356l16 -82l36 -62l60 -52l36 -12h98l52 24l66 88v26l-12 68l-4 66l-4 402l-10 94l-48 20l-36 10 l-52 -10l-36 -14l-50 -56l-46 -112l-50 -114l-10 -60z" />
<glyph unicode="&#x153;" horiz-adv-x="862" d="M78 220v54l4 40l10 54l10 24l14 30l22 40l38 64l38 38l44 28l28 12l32 6l70 4l28 8l18 16l28 10l28 -10l18 -16l28 -8h258l28 -10v-18l-36 -36l-28 -6h-222l-28 -10l-10 -28v-104l10 -26l28 -8h148l28 -10l8 -26l-8 -28l-28 -8h-148l-28 -8l-10 -28l16 -96l14 -42l18 -28 l26 -10h148l28 -6l28 -4l28 -28v-16l-10 -16h-296l-26 10l-20 18h-18l-18 -18l-46 -26l-28 -8l-28 -10h-36l-28 10l-40 14l-34 20l-40 24l-34 46l-10 28zM164 180l12 -52l28 -38l46 -32l28 -8h74l40 16l48 56v16l-8 40l-4 42l-2 252l-8 56l-38 16l-26 2l-40 -2l-28 -10 l-36 -34l-38 -72l-36 -70l-8 -36z" />
<glyph unicode="&#x178;" horiz-adv-x="736" d="M64 1120l8 24l24 8l24 -8l54 -62l42 -66l112 -144l24 -8l24 8l32 32l58 100l80 136l18 38l32 32l44 6l24 -8l8 -24l-8 -24l-16 -16l-48 -80l-64 -96l-64 -96l-32 -64l-8 -34l-2 -30v-56l2 -32l8 -104v-48l4 -78l4 -298l-8 -24h-16l-56 8l-8 24l-6 68l-8 112l6 66v66 l-12 256l-8 24l-34 84l-34 32l-128 156l-64 96zM256 1266l6 20l18 4l16 8l12 12h10l24 -24l6 -20l-6 -18l-24 -26l-16 -6l-18 6l-12 14l-10 12zM416 1270l6 20l16 4h46l18 -4l6 -20l-6 -18l-24 -24l-16 -8l-18 8l-12 12l-10 12z" />
<glyph unicode="&#x2c6;" horiz-adv-x="320" d="M96 952v24l18 30l12 38h12l6 -20v-24l-6 -18l-10 -20l-14 -28h-12zM144 1074v24l6 18l18 6l18 -6l12 -36l84 -86l6 -18l-6 -18l-18 -6l-18 6l-12 36l-48 50l-36 12z" />
<glyph unicode="&#x2dc;" horiz-adv-x="484" d="M86 1118v40l4 16l12 22l28 28l20 10l16 2l14 -2l60 -66l22 -34l10 -18l14 -16l20 -2l24 18l4 32l-2 54l-2 20l2 12l12 12h10l6 -14l8 -118l-6 -32l-10 -10l-30 -30l-16 -4l-14 4l-54 64l-24 34l-42 48l-22 6l-16 -10l-18 -40l-2 -22v-22l-24 4z" />
<glyph unicode="&#x2000;" horiz-adv-x="705" />
<glyph unicode="&#x2001;" horiz-adv-x="1410" />
<glyph unicode="&#x2002;" horiz-adv-x="705" />
<glyph unicode="&#x2003;" horiz-adv-x="1410" />
<glyph unicode="&#x2004;" horiz-adv-x="470" />
<glyph unicode="&#x2005;" horiz-adv-x="352" />
<glyph unicode="&#x2006;" horiz-adv-x="235" />
<glyph unicode="&#x2007;" horiz-adv-x="235" />
<glyph unicode="&#x2008;" horiz-adv-x="176" />
<glyph unicode="&#x2009;" horiz-adv-x="282" />
<glyph unicode="&#x200a;" horiz-adv-x="78" />
<glyph unicode="&#x2010;" d="M64 512l8 24l24 8h32l24 8l16 16l24 8h64l24 8l16 16l24 8h128l24 -8v-16l-16 -16l-16 -16l-24 -8h-96l-24 -8l-16 -16l-24 -8h-64l-24 -8l-16 -16l-24 -8h-32l-24 8z" />
<glyph unicode="&#x2011;" d="M64 512l8 24l24 8h32l24 8l16 16l24 8h64l24 8l16 16l24 8h128l24 -8v-16l-16 -16l-16 -16l-24 -8h-96l-24 -8l-16 -16l-24 -8h-64l-24 -8l-16 -16l-24 -8h-32l-24 8z" />
<glyph unicode="&#x2012;" d="M64 512l8 24l24 8h32l24 8l16 16l24 8h64l24 8l16 16l24 8h128l24 -8v-16l-16 -16l-16 -16l-24 -8h-96l-24 -8l-16 -16l-24 -8h-64l-24 -8l-16 -16l-24 -8h-32l-24 8z" />
<glyph unicode="&#x2013;" d="M64 512l8 24l24 8l28 6l24 8l20 10l24 8l104 24l24 4l128 4l24 -8v-16l-16 -16l-16 -16l-24 -8l-96 -6l-24 -2l-104 -24l-20 -12l-20 -12l-24 -8h-32l-24 8z" />
<glyph unicode="&#x2014;" horiz-adv-x="2184" d="M64 512l40 24l121 8h160l121 8l80 16l121 8h321l120 8l81 16l120 8h643l120 -8v-16l-80 -16l-81 -16l-120 -8h-482l-120 -8l-81 -16l-120 -8h-321l-121 -8l-80 -16l-121 -8h-160l-121 8z" />
<glyph unicode="&#x2018;" horiz-adv-x="320" d="M64 978v14l4 14l10 12l38 54l12 24l18 20l14 4l14 -4v-10l-6 -10l-4 -14l-4 -16l-6 -12l-32 -58l-6 -14l-18 -18l-14 -4l-16 4z" />
<glyph unicode="&#x2019;" horiz-adv-x="320" d="M64 978v18l4 12l8 12l10 24l34 54l18 16l14 6l12 -6v-8l-4 -10l-6 -14l-2 -16l-6 -14l-34 -54l-2 -12l-16 -20l-12 -6l-14 6z" />
<glyph unicode="&#x201a;" horiz-adv-x="1706" />
<glyph unicode="&#x201c;" horiz-adv-x="384" d="M64 1088v224l8 24l24 8l24 -8l8 -24v-32l8 -24l16 -16l8 -24v-128l-8 -24l-16 -16l-16 -16h-16l-32 32zM224 1088v192l8 24l24 8l24 -8l8 -24l6 -30l2 -26v-48l-4 -28l-4 -28l-8 -24l-32 -32h-16z" />
<glyph unicode="&#x201d;" horiz-adv-x="384" d="M64 1088v224l8 24l24 8l24 -8l8 -24v-32l8 -24l16 -16l8 -24v-128l-8 -24l-16 -16l-16 -16h-16l-32 32zM224 1088v192l8 24l24 8l24 -8l8 -24l4 -30l4 -26l-2 -48l-2 -26l-4 -30l-8 -24l-32 -32h-16z" />
<glyph unicode="&#x2022;" horiz-adv-x="1706" />
<glyph unicode="&#x202f;" horiz-adv-x="282" />
<glyph unicode="&#x205f;" horiz-adv-x="352" />
<glyph unicode="&#x20ac;" horiz-adv-x="736" d="M64 840v30l24 8l64 2l24 6l64 10l6 10l2 54l6 30l34 94l14 18l50 42l38 22l26 10l10 2h108l24 -8l18 -10l40 -20l16 -20v-32l-8 -14h-16l-68 36l-20 2l-70 -6l-54 -18l-18 -12l-26 -30l-18 -36l-8 -18l-8 -66l2 -22l24 -8h160l24 -8l8 -24l-8 -24l-24 -8h-160l-24 -8v-48 l24 -8h128l24 -8l8 -24l-8 -24l-24 -8h-128l-24 -8l-6 -10l6 -38l24 -136l8 -24l22 -46l14 -22l34 -42l18 -10l58 -10l38 10l52 62l8 24l4 26l8 24h16h14l18 -64v-16l-12 -20l-26 -40l-28 -32l-62 -36l-24 -8l-60 2l-28 6l-16 10l-34 30l-46 56l-20 38l-12 26l-8 24l-26 132 l-6 40v20l-8 32h-24h-32l-24 8l-8 24l8 24l34 6l22 2l24 8v48l-24 8h-128z" />
<glyph unicode="&#x2122;" horiz-adv-x="472" d="M34 1162l2 6h6h70l4 2l4 4l6 2h6l6 -2h4h4h2l6 2h62l6 -2l2 -6l-2 -8l-4 -2h-64l-6 -2v-6l-2 -24v-34l4 -100l2 -26l2 -8v-14l-2 -4l-8 -8h-2l-10 8l-2 18v8l-4 82v6v18l-2 8l-2 20v14l-2 34v6h-6h-48l-4 -2l-8 -2l-6 -2l-4 2l-8 6zM240 1130l4 6l6 4h4l8 -2l6 -6l8 -6 l14 -22l20 -28l18 -22h4l20 22l34 38l2 4l2 6l2 6l6 10h4l6 -8l2 -6l2 -112l2 -6l2 -10l2 -4v-14l-2 -6l-4 -4l-4 -2h-2l-8 6l-2 6v112l-2 4h-2l-36 -42l-14 -18l-10 -6h-4l-6 8l-8 8l-14 20l-20 28l-18 24h-4v-4l4 -4l2 -4l4 -108l2 -6v-54l-2 -6h-2l-10 2l-4 8v10l-6 50v8 l-4 90v16v6z" />
<glyph unicode="&#x25fc;" horiz-adv-x="620" d="M0 0v620h620v-620h-620z" />
</font>
</defs>
</svg>
